<svg width="100" height="144" viewBox="0 0 100 144" fill="none" xmlns="http://www.w3.org/2000/svg">
<rect width="100" height="33" rx="5" fill="white" fill-opacity="0.7"/>
<path d="M16.938 21V10.99H18.198V19.838H23.448V21H16.938ZM24.522 21V13.762H25.656V21H24.522ZM24.522 12.39V10.99H25.656V12.39H24.522ZM28.9936 21L26.4596 13.762H27.6776L29.1756 18.354L29.6516 19.88H29.6796C29.857 19.2827 30.0156 18.774 30.1556 18.354L31.6816 13.762H32.8576L30.2536 21H28.9936ZM33.6548 21V13.762H34.7888V21H33.6548ZM33.6548 12.39V10.99H34.7888V12.39H33.6548ZM37.4685 13.762V14.714H37.4965C38.0565 13.9673 38.8218 13.594 39.7925 13.594C40.5578 13.594 41.1551 13.7947 41.5845 14.196C42.0138 14.5973 42.2285 15.1713 42.2285 15.918V21H41.0945V16.016C41.0945 15.5493 40.9498 15.19 40.6605 14.938C40.3711 14.6767 39.9698 14.546 39.4565 14.546C38.8778 14.546 38.4018 14.7327 38.0285 15.106C37.6551 15.4793 37.4685 15.96 37.4685 16.548V21H36.3345V13.762H37.4685ZM46.6149 23.408C45.6909 23.408 44.9629 23.2307 44.4309 22.876C43.9083 22.5307 43.6143 22.0407 43.5489 21.406H44.5989C44.7016 22.1433 45.3643 22.512 46.5869 22.512C47.9683 22.512 48.6589 21.8913 48.6589 20.65V19.628H48.6309C48.3416 20.0013 48.0336 20.2813 47.7069 20.468C47.3803 20.6547 46.9743 20.748 46.4889 20.748C45.5556 20.748 44.7949 20.412 44.2069 19.74C43.6189 19.068 43.3249 18.2093 43.3249 17.164C43.3249 16.072 43.6189 15.204 44.2069 14.56C44.8043 13.916 45.5416 13.594 46.4189 13.594C47.3709 13.594 48.1083 13.958 48.6309 14.686H48.6589V13.762H49.7929V20.608C49.7929 21.532 49.5083 22.2273 48.9389 22.694C48.3789 23.17 47.6043 23.408 46.6149 23.408ZM46.5449 19.796C48.0103 19.796 48.7429 18.9 48.7429 17.108C48.7429 15.4 48.0056 14.546 46.5309 14.546C45.8683 14.546 45.3596 14.784 45.0049 15.26C44.6596 15.736 44.4869 16.3753 44.4869 17.178C44.4869 17.9807 44.6643 18.62 45.0189 19.096C45.3736 19.5627 45.8823 19.796 46.5449 19.796ZM54.695 13.762V14.966H54.723C54.9563 14.5833 55.2597 14.2753 55.633 14.042C56.0063 13.7993 56.4217 13.678 56.879 13.678C57.047 13.678 57.201 13.706 57.341 13.762V14.854H57.299C57.159 14.8073 56.991 14.784 56.795 14.784C56.2163 14.784 55.7217 14.9893 55.311 15.4C54.9003 15.8013 54.695 16.3287 54.695 16.982V21H53.561V13.762H54.695ZM63.7144 20.104C63.0797 20.832 62.2351 21.196 61.1804 21.196C60.1257 21.196 59.2764 20.832 58.6324 20.104C57.9977 19.376 57.6804 18.4707 57.6804 17.388C57.6804 16.3053 57.9977 15.4 58.6324 14.672C59.2764 13.944 60.1257 13.58 61.1804 13.58C62.2351 13.58 63.0797 13.944 63.7144 14.672C64.3491 15.4 64.6664 16.3053 64.6664 17.388C64.6664 18.4707 64.3491 19.376 63.7144 20.104ZM59.4444 19.446C59.8551 19.978 60.4337 20.244 61.1804 20.244C61.9271 20.244 62.5011 19.978 62.9024 19.446C63.3037 18.9047 63.5044 18.2187 63.5044 17.388C63.5044 16.548 63.2991 15.862 62.8884 15.33C62.4871 14.7887 61.9177 14.518 61.1804 14.518C60.4337 14.518 59.8551 14.7887 59.4444 15.33C59.0431 15.8713 58.8424 16.5573 58.8424 17.388C58.8424 18.2187 59.0431 18.9047 59.4444 19.446ZM71.4253 20.104C70.7907 20.832 69.946 21.196 68.8913 21.196C67.8367 21.196 66.9873 20.832 66.3433 20.104C65.7087 19.376 65.3913 18.4707 65.3913 17.388C65.3913 16.3053 65.7087 15.4 66.3433 14.672C66.9873 13.944 67.8367 13.58 68.8913 13.58C69.946 13.58 70.7907 13.944 71.4253 14.672C72.06 15.4 72.3773 16.3053 72.3773 17.388C72.3773 18.4707 72.06 19.376 71.4253 20.104ZM67.1553 19.446C67.566 19.978 68.1447 20.244 68.8913 20.244C69.638 20.244 70.212 19.978 70.6133 19.446C71.0147 18.9047 71.2153 18.2187 71.2153 17.388C71.2153 16.548 71.01 15.862 70.5993 15.33C70.198 14.7887 69.6287 14.518 68.8913 14.518C68.1447 14.518 67.566 14.7887 67.1553 15.33C66.754 15.8713 66.5533 16.5573 66.5533 17.388C66.5533 18.2187 66.754 18.9047 67.1553 19.446ZM73.5083 21V13.762H74.6423V14.798H74.6703C74.9036 14.434 75.2069 14.1447 75.5803 13.93C75.9536 13.706 76.3596 13.594 76.7983 13.594C77.7409 13.594 78.3709 14.0233 78.6883 14.882H78.7163C78.9403 14.4807 79.2529 14.168 79.6543 13.944C80.0556 13.7107 80.4803 13.594 80.9283 13.594C81.5909 13.594 82.1229 13.7993 82.5243 14.21C82.9256 14.6113 83.1263 15.1807 83.1263 15.918V21H81.9923V15.974C81.9923 15.5353 81.8616 15.19 81.6003 14.938C81.3483 14.6767 81.0356 14.546 80.6623 14.546C80.1863 14.546 79.7709 14.7327 79.4163 15.106C79.0616 15.4793 78.8843 15.9413 78.8843 16.492V21H77.7503V15.974C77.7503 15.5353 77.6336 15.19 77.4003 14.938C77.1763 14.6767 76.8776 14.546 76.5043 14.546C76.0376 14.546 75.6083 14.7373 75.2163 15.12C74.8336 15.4933 74.6423 15.9507 74.6423 16.492V21H73.5083Z" fill="#282828"/>
<path d="M16.938 58V47.99H21.18C22.2347 47.99 23.0373 48.2793 23.588 48.858C24.0173 49.306 24.232 49.8753 24.232 50.566C24.232 51.63 23.6953 52.33 22.622 52.666V52.708C23.2193 52.848 23.7047 53.128 24.078 53.548C24.4513 53.9587 24.638 54.486 24.638 55.13C24.638 55.8953 24.3953 56.5347 23.91 57.048C23.322 57.6827 22.4867 58 21.404 58H16.938ZM18.198 56.866H21.348C22.0387 56.866 22.5613 56.698 22.916 56.362C23.2147 56.0447 23.364 55.6573 23.364 55.2C23.364 54.5933 23.1727 54.1313 22.79 53.814C22.4073 53.4967 21.8987 53.338 21.264 53.338H18.198V56.866ZM18.198 52.274H21.026C21.6327 52.274 22.1087 52.1293 22.454 51.84C22.7993 51.5507 22.972 51.1493 22.972 50.636C22.972 50.1507 22.8133 49.7727 22.496 49.502C22.188 49.222 21.754 49.082 21.194 49.082H18.198V52.274ZM28.8738 58.196C27.8004 58.196 26.9464 57.8367 26.3118 57.118C25.6864 56.39 25.3738 55.48 25.3738 54.388C25.3738 53.3147 25.6911 52.414 26.3258 51.686C26.9698 50.9487 27.7958 50.58 28.8038 50.58C29.8678 50.58 30.6891 50.9533 31.2678 51.7C31.8464 52.4373 32.1358 53.422 32.1358 54.654H26.5358C26.5824 55.4193 26.8064 56.0447 27.2078 56.53C27.6184 57.006 28.1738 57.244 28.8738 57.244C29.9564 57.244 30.6238 56.7493 30.8758 55.76H31.9818C31.8138 56.5347 31.4591 57.1367 30.9178 57.566C30.3764 57.986 29.6951 58.196 28.8738 58.196ZM30.3158 52.092C29.9518 51.6813 29.4478 51.476 28.8038 51.476C28.1598 51.476 27.6464 51.6907 27.2638 52.12C26.8904 52.5493 26.6571 53.1093 26.5638 53.8H30.9178C30.8804 53.072 30.6798 52.5027 30.3158 52.092ZM36.0446 58.21C35.0553 58.21 34.2713 57.8693 33.6926 57.188C33.1233 56.4973 32.8386 55.5687 32.8386 54.402C32.8386 53.226 33.1373 52.2973 33.7346 51.616C34.3319 50.9347 35.0926 50.594 36.0166 50.594C36.9966 50.594 37.7526 50.9907 38.2846 51.784H38.3126V47.99H39.4466V58H38.3126V57.118H38.2846C37.7153 57.846 36.9686 58.21 36.0446 58.21ZM36.0866 57.258C36.8613 57.258 37.4353 57.0013 37.8086 56.488C38.1913 55.9747 38.3826 55.284 38.3826 54.416C38.3826 53.5573 38.1773 52.8667 37.7666 52.344C37.3653 51.8213 36.8006 51.56 36.0726 51.56C35.4099 51.56 34.8966 51.826 34.5326 52.358C34.1779 52.8807 34.0006 53.5667 34.0006 54.416C34.0006 55.2653 34.1779 55.9513 34.5326 56.474C34.8966 56.9967 35.4146 57.258 36.0866 57.258ZM44.3454 50.762V51.966H44.3734C44.6067 51.5833 44.9101 51.2753 45.2834 51.042C45.6567 50.7993 46.0721 50.678 46.5294 50.678C46.6974 50.678 46.8514 50.706 46.9914 50.762V51.854H46.9494C46.8094 51.8073 46.6414 51.784 46.4454 51.784C45.8667 51.784 45.3721 51.9893 44.9614 52.4C44.5507 52.8013 44.3454 53.3287 44.3454 53.982V58H43.2114V50.762H44.3454ZM53.3648 57.104C52.7301 57.832 51.8855 58.196 50.8308 58.196C49.7761 58.196 48.9268 57.832 48.2828 57.104C47.6481 56.376 47.3308 55.4707 47.3308 54.388C47.3308 53.3053 47.6481 52.4 48.2828 51.672C48.9268 50.944 49.7761 50.58 50.8308 50.58C51.8855 50.58 52.7301 50.944 53.3648 51.672C53.9995 52.4 54.3168 53.3053 54.3168 54.388C54.3168 55.4707 53.9995 56.376 53.3648 57.104ZM49.0948 56.446C49.5055 56.978 50.0841 57.244 50.8308 57.244C51.5775 57.244 52.1515 56.978 52.5528 56.446C52.9541 55.9047 53.1548 55.2187 53.1548 54.388C53.1548 53.548 52.9495 52.862 52.5388 52.33C52.1375 51.7887 51.5681 51.518 50.8308 51.518C50.0841 51.518 49.5055 51.7887 49.0948 52.33C48.6935 52.8713 48.4928 53.5573 48.4928 54.388C48.4928 55.2187 48.6935 55.9047 49.0948 56.446ZM61.0757 57.104C60.4411 57.832 59.5964 58.196 58.5417 58.196C57.4871 58.196 56.6377 57.832 55.9937 57.104C55.3591 56.376 55.0417 55.4707 55.0417 54.388C55.0417 53.3053 55.3591 52.4 55.9937 51.672C56.6377 50.944 57.4871 50.58 58.5417 50.58C59.5964 50.58 60.4411 50.944 61.0757 51.672C61.7104 52.4 62.0277 53.3053 62.0277 54.388C62.0277 55.4707 61.7104 56.376 61.0757 57.104ZM56.8057 56.446C57.2164 56.978 57.7951 57.244 58.5417 57.244C59.2884 57.244 59.8624 56.978 60.2637 56.446C60.6651 55.9047 60.8657 55.2187 60.8657 54.388C60.8657 53.548 60.6604 52.862 60.2497 52.33C59.8484 51.7887 59.2791 51.518 58.5417 51.518C57.7951 51.518 57.2164 51.7887 56.8057 52.33C56.4044 52.8713 56.2037 53.5573 56.2037 54.388C56.2037 55.2187 56.4044 55.9047 56.8057 56.446ZM63.1587 58V50.762H64.2927V51.798H64.3207C64.554 51.434 64.8573 51.1447 65.2307 50.93C65.604 50.706 66.01 50.594 66.4487 50.594C67.3913 50.594 68.0213 51.0233 68.3387 51.882H68.3667C68.5907 51.4807 68.9033 51.168 69.3047 50.944C69.706 50.7107 70.1307 50.594 70.5787 50.594C71.2413 50.594 71.7733 50.7993 72.1747 51.21C72.576 51.6113 72.7767 52.1807 72.7767 52.918V58H71.6427V52.974C71.6427 52.5353 71.512 52.19 71.2507 51.938C70.9987 51.6767 70.686 51.546 70.3127 51.546C69.8367 51.546 69.4213 51.7327 69.0667 52.106C68.712 52.4793 68.5347 52.9413 68.5347 53.492V58H67.4007V52.974C67.4007 52.5353 67.284 52.19 67.0507 51.938C66.8267 51.6767 66.528 51.546 66.1547 51.546C65.688 51.546 65.2587 51.7373 64.8667 52.12C64.484 52.4933 64.2927 52.9507 64.2927 53.492V58H63.1587Z" fill="white"/>
<path d="M16.938 95V84.99H18.198V89.246H23.546V84.99H24.806V95H23.546V90.268H18.198V95H16.938ZM32.202 95.07C31.4834 95.07 31.068 94.7107 30.956 93.992H30.942C30.3447 94.7573 29.542 95.14 28.534 95.14C27.8154 95.14 27.2274 94.9673 26.77 94.622C26.3127 94.2767 26.084 93.7773 26.084 93.124C26.084 92.788 26.1354 92.4987 26.238 92.256C26.35 92.004 26.49 91.8033 26.658 91.654C26.826 91.4953 27.0547 91.36 27.344 91.248C27.6427 91.1267 27.9274 91.038 28.198 90.982C28.4687 90.9167 28.814 90.8513 29.234 90.786C29.5047 90.7487 29.696 90.7207 29.808 90.702C29.9294 90.674 30.0834 90.6367 30.27 90.59C30.4567 90.534 30.5874 90.4733 30.662 90.408C30.7367 90.3427 30.8067 90.254 30.872 90.142C30.9374 90.03 30.97 89.8993 30.97 89.75C30.97 89.3393 30.8254 89.0267 30.536 88.812C30.256 88.588 29.8594 88.476 29.346 88.476C28.1794 88.476 27.5774 89.008 27.54 90.072H26.448C26.4667 89.3347 26.7187 88.742 27.204 88.294C27.6987 87.846 28.408 87.622 29.332 87.622C31.1147 87.622 32.006 88.3873 32.006 89.918V93.362C32.006 93.6793 32.0574 93.9033 32.16 94.034C32.272 94.1647 32.4774 94.1973 32.776 94.132H32.818V94.958C32.6314 95.0327 32.426 95.07 32.202 95.07ZM28.786 94.272C29.486 94.272 30.0274 94.0713 30.41 93.67C30.7927 93.2593 30.984 92.8113 30.984 92.326V91.094C30.6387 91.3087 30.088 91.486 29.332 91.626C29.052 91.682 28.8327 91.7287 28.674 91.766C28.5154 91.794 28.3334 91.85 28.128 91.934C27.9227 92.0087 27.7687 92.0927 27.666 92.186C27.5634 92.2793 27.4747 92.4053 27.4 92.564C27.3254 92.7133 27.288 92.8907 27.288 93.096C27.288 93.88 27.7874 94.272 28.786 94.272ZM33.6968 95V84.99H34.8308V95H33.6968ZM36.4585 95V84.99H37.5925V95H36.4585Z" fill="white"/>
<path d="M16.938 132V121.99H18.198V126.96L23.126 121.99H24.708L20.662 125.994L25.044 132H23.574L19.808 126.848L18.198 128.458V132H16.938ZM25.7798 132V124.762H26.9138V132H25.7798ZM25.7798 123.39V121.99H26.9138V123.39H25.7798ZM27.9975 125.686V124.762H29.0475V122.48H30.1815V124.762H31.5815V125.686H30.1815V130.39C30.1815 130.838 30.4241 131.062 30.9095 131.062C31.1148 131.062 31.3155 131.029 31.5115 130.964H31.5535V131.944C31.2455 132.009 30.9421 132.042 30.6435 132.042C29.5795 132.042 29.0475 131.575 29.0475 130.642V125.686H27.9975ZM35.7781 132.196C34.7234 132.196 33.8741 131.832 33.2301 131.104C32.5954 130.376 32.2781 129.471 32.2781 128.388C32.2781 127.305 32.5954 126.4 33.2301 125.672C33.8741 124.944 34.7234 124.58 35.7781 124.58C36.6274 124.58 37.3227 124.809 37.8641 125.266C38.4054 125.714 38.7414 126.325 38.8721 127.1H37.7241C37.6401 126.605 37.4301 126.218 37.0941 125.938C36.7581 125.658 36.3194 125.518 35.7781 125.518C35.0314 125.518 34.4527 125.789 34.0421 126.33C33.6407 126.871 33.4401 127.557 33.4401 128.388C33.4401 129.219 33.6407 129.905 34.0421 130.446C34.4527 130.978 35.0314 131.244 35.7781 131.244C36.3567 131.244 36.8187 131.09 37.1641 130.782C37.5094 130.465 37.7054 130.021 37.7521 129.452H38.8721C38.7974 130.32 38.4894 130.997 37.9481 131.482C37.4067 131.958 36.6834 132.196 35.7781 132.196ZM41.0778 121.99V125.714H41.1058C41.6658 124.967 42.4312 124.594 43.4018 124.594C44.1672 124.594 44.7645 124.795 45.1938 125.196C45.6232 125.597 45.8378 126.171 45.8378 126.918V132H44.7038V127.016C44.7038 126.549 44.5592 126.19 44.2698 125.938C43.9805 125.677 43.5792 125.546 43.0658 125.546C42.4872 125.546 42.0112 125.733 41.6378 126.106C41.2645 126.479 41.0778 126.96 41.0778 127.548V132H39.9438V121.99H41.0778ZM50.4343 132.196C49.361 132.196 48.507 131.837 47.8723 131.118C47.247 130.39 46.9343 129.48 46.9343 128.388C46.9343 127.315 47.2516 126.414 47.8863 125.686C48.5303 124.949 49.3563 124.58 50.3643 124.58C51.4283 124.58 52.2496 124.953 52.8283 125.7C53.407 126.437 53.6963 127.422 53.6963 128.654H48.0963C48.143 129.419 48.367 130.045 48.7683 130.53C49.179 131.006 49.7343 131.244 50.4343 131.244C51.517 131.244 52.1843 130.749 52.4363 129.76H53.5423C53.3743 130.535 53.0196 131.137 52.4783 131.566C51.937 131.986 51.2556 132.196 50.4343 132.196ZM51.8763 126.092C51.5123 125.681 51.0083 125.476 50.3643 125.476C49.7203 125.476 49.207 125.691 48.8243 126.12C48.451 126.549 48.2176 127.109 48.1243 127.8H52.4783C52.441 127.072 52.2403 126.503 51.8763 126.092ZM55.9392 124.762V125.714H55.9672C56.5272 124.967 57.2925 124.594 58.2632 124.594C59.0285 124.594 59.6258 124.795 60.0552 125.196C60.4845 125.597 60.6992 126.171 60.6992 126.918V132H59.5652V127.016C59.5652 126.549 59.4205 126.19 59.1312 125.938C58.8418 125.677 58.4405 125.546 57.9272 125.546C57.3485 125.546 56.8725 125.733 56.4992 126.106C56.1258 126.479 55.9392 126.96 55.9392 127.548V132H54.8052V124.762H55.9392Z" fill="white"/>
</svg>
