<svg width="161" height="16" viewBox="0 0 161 16" fill="none" xmlns="http://www.w3.org/2000/svg">
<path d="M2.51683 0.354671C2.5397 0.155427 2.73947 0 2.91678 0H3.27223C3.38369 0 3.58346 0.0885988 3.65055 0.220739L8.80512 9.8222H8.85031L14.005 0.220739C14.0721 0.0885988 14.2717 0 14.3833 0H14.7388C14.9161 0 15.1163 0.155427 15.1386 0.354671L17.6489 15.2889C17.6933 15.5785 17.4932 15.7773 17.2272 15.7773H14.6049C14.4047 15.7773 14.2046 15.6 14.1822 15.4227L13.1824 8.55536H13.1384L9.4058 15.7558C9.3387 15.8898 9.13907 15.9999 9.02748 15.9999H8.62767C8.49375 15.9999 8.31644 15.8896 8.24935 15.7558L4.49426 8.55536H4.4499L3.47214 15.4227C3.45023 15.6 3.27196 15.7773 3.05042 15.7773H0.427673C0.162188 15.7773 -0.03882 15.5785 0.00636887 15.2889L2.51683 0.354671Z" fill="#BE9140"/>
<path d="M39.6823 0.753849C39.6823 0.464629 39.9048 0.220052 40.216 0.220052H42.8163C43.1046 0.220052 43.3486 0.464491 43.3486 0.753849V6.59875L48.2821 0.44272C48.3708 0.332075 48.5704 0.220052 48.7043 0.220052H51.5044C51.9261 0.220052 52.1486 0.710446 51.9042 1.04307L46.7045 7.55446L52.3713 14.9335C52.6152 15.2667 52.3713 15.7552 51.9484 15.7552H48.8815C48.7261 15.7552 48.5261 15.6666 48.4817 15.5994L43.3485 8.62205V15.2431C43.3485 15.5328 43.1045 15.7769 42.8162 15.7769H40.2159C39.9046 15.7769 39.6821 15.5329 39.6821 15.2431L39.6823 0.753849Z" fill="#BE9140"/>
<path d="M85.7144 12.4888C88.2257 12.4888 90.0479 10.511 90.0479 7.97747C90.0479 5.46584 88.2256 3.48801 85.7144 3.48801H83.581V12.4888H85.7144ZM80.1142 0.643618C80.1142 0.421087 80.2928 0.220052 80.5144 0.220052H85.9368C90.2246 0.220052 93.7357 3.71054 93.7357 7.97747C93.7357 12.2878 90.2246 15.7771 85.9368 15.7771H80.5144C80.2928 15.7771 80.1142 15.5778 80.1142 15.3553V0.643618Z" fill="#BE9140"/>
<path d="M112.445 13.6674L113.489 11.8215C113.667 11.534 114.09 11.5775 114.245 11.6876C114.334 11.7329 115.933 12.911 117.4 12.911C118.289 12.911 118.933 12.3553 118.933 11.5775C118.933 10.644 118.155 9.93229 116.644 9.33373C114.734 8.57699 112.334 7.08804 112.334 4.42236C112.334 2.222 114.045 0 117.467 0C119.778 0 121.555 1.1759 122.222 1.66657C122.489 1.82199 122.445 2.22186 122.356 2.3777L121.223 4.08739C121.067 4.33183 120.667 4.53287 120.467 4.37717C120.267 4.26693 118.645 3.04364 117.288 3.04364C116.489 3.04364 115.889 3.57743 115.889 4.17654C115.889 4.99956 116.556 5.62209 118.311 6.33364C120.045 7.02094 122.8 8.37816 122.8 11.4003C122.8 13.6894 120.822 16 117.556 16C114.667 16 113.068 14.8004 112.556 14.2881C112.334 14.0678 112.267 13.9767 112.445 13.6674Z" fill="#BE9140"/>
<path d="M124.96 0.643618C124.96 0.421087 125.16 0.220052 125.382 0.220052H128.049C128.271 0.220052 128.471 0.421087 128.471 0.643618V15.3553C128.471 15.5778 128.271 15.7771 128.049 15.7771H125.382C125.16 15.7771 124.96 15.5778 124.96 15.3553V0.643618Z" fill="#BE9140"/>
<path d="M138.941 0.0221354C140.807 0.0221354 142.852 0.799958 144.363 2.1102C144.563 2.26604 144.585 2.5339 144.408 2.71124L142.652 4.57664C142.475 4.73248 142.23 4.73248 142.052 4.60034C141.208 3.8221 140.23 3.53247 139.141 3.53247C136.719 3.53247 134.763 5.5774 134.763 8.02248C134.763 10.4455 136.741 12.4448 139.164 12.4448C139.808 12.4448 140.475 12.3562 141.141 12.0902V10.8002H139.741C139.496 10.8002 139.32 10.6228 139.32 10.4002V8.19982C139.32 7.95538 139.496 7.77804 139.741 7.77804H144.208C144.43 7.77804 144.608 7.97908 144.608 8.19982L144.63 14.1782C144.63 14.2887 144.541 14.468 144.453 14.5329C144.453 14.5329 142.163 15.9787 138.941 15.9787C134.519 15.9787 130.964 12.4668 130.964 8.02248C130.964 3.57766 134.519 0.0221354 138.941 0.0221354Z" fill="#BE9140"/>
<path d="M147.623 0.400003C147.623 0.177335 147.822 0 148.045 0H148.601L157.466 8.534H157.488V0.644442C157.488 0.421774 157.667 0.220739 157.912 0.220739H160.576C160.799 0.220739 161 0.421774 161 0.644442V15.6C161 15.8225 160.799 15.9999 160.576 15.9999H160.222C160.155 15.9999 159.977 15.9332 159.932 15.8896L151.155 7.06654H151.134V15.356C151.134 15.5786 150.956 15.7779 150.712 15.7779H148.067C147.844 15.7779 147.645 15.5786 147.645 15.356L147.623 0.400003Z" fill="#BE9140"/>
<path d="M67.3108 12.4027C67.5333 12.4027 67.7339 12.6024 67.7339 12.8251V15.2376C67.7339 15.4593 67.5333 15.659 67.3108 15.659H55.3832C55.1605 15.659 54.9613 15.4593 54.9613 15.2376V12.8251C54.9613 12.6024 55.1605 12.4027 55.3832 12.4027H67.3108Z" fill="#BE9140"/>
<path d="M67.3108 6.28013C67.5333 6.28013 67.7339 6.47979 67.7339 6.70232V9.11502C67.7339 9.33631 67.5333 9.53638 67.3108 9.53638H55.3832C55.1605 9.53638 54.9613 9.33617 54.9613 9.11502V6.70232C54.9613 6.47979 55.1605 6.28013 55.3832 6.28013H67.3108Z" fill="#BE9140"/>
<path d="M67.3108 0.158854C67.5333 0.158854 67.7339 0.359063 67.7339 0.581731V2.99388C67.7339 3.21544 67.5333 3.4151 67.3108 3.4151H55.3832C55.1605 3.4151 54.9613 3.21544 54.9613 2.99388V0.581731C54.9613 0.359063 55.1605 0.158854 55.3832 0.158854H67.3108Z" fill="#BE9140"/>
<path d="M108.576 12.4027C108.799 12.4027 108.999 12.6024 108.999 12.8251V15.2376C108.999 15.4593 108.799 15.659 108.576 15.659H96.6484C96.4258 15.659 96.2266 15.4593 96.2266 15.2376V12.8251C96.2266 12.6024 96.4258 12.4027 96.6484 12.4027H108.576Z" fill="#BE9140"/>
<path d="M108.576 6.28013C108.799 6.28013 108.999 6.47979 108.999 6.70232V9.11502C108.999 9.33631 108.799 9.53638 108.576 9.53638H96.6484C96.4258 9.53638 96.2266 9.33617 96.2266 9.11502V6.70232C96.2266 6.47979 96.4258 6.28013 96.6484 6.28013H108.576Z" fill="#BE9140"/>
<path d="M108.576 0.158854C108.799 0.158854 108.999 0.359063 108.999 0.581731V2.99388C108.999 3.21544 108.799 3.4151 108.576 3.4151H96.6484C96.4258 3.4151 96.2266 3.21544 96.2266 2.99388V0.581731C96.2266 0.359063 96.4258 0.158854 96.6484 0.158854H108.576Z" fill="#BE9140"/>
<path d="M27.6828 12.4445C25.26 12.4445 23.261 10.445 23.261 8.02212C23.261 5.57731 25.26 3.55594 27.6828 3.55594C30.1268 3.55594 32.1264 5.57731 32.1264 8.02212C32.1264 10.4451 30.1269 12.4445 27.6828 12.4445ZM35.26 0.220739H32.5929C32.3704 0.220739 32.1708 0.421774 32.1708 0.644442V1.66271C31.0168 0.633695 29.5174 0 27.6828 0C23.2383 0 19.7057 3.57743 19.7057 8.02212C19.7057 12.466 23.2383 15.9999 27.6828 15.9999C29.5176 15.9999 31.0169 15.3739 32.1708 14.3538V15.356C32.1708 15.5786 32.3704 15.7779 32.5929 15.7779H35.26C35.4816 15.7779 35.6817 15.5786 35.6817 15.356V0.644442C35.6817 0.421774 35.4816 0.220739 35.26 0.220739Z" fill="#BE9140"/>
</svg>
