<svg width="50" height="50" viewBox="0 0 50 50" fill="none" xmlns="http://www.w3.org/2000/svg">
<path d="M17.0397 26.9611C17.0397 26.8823 17.0491 26.8058 17.0651 26.7317C17.1708 26.2417 17.6066 25.873 18.1278 25.873H31.8726C32.3938 25.873 32.8296 26.2417 32.9353 26.7317C32.9513 26.8058 32.9607 26.8823 32.9607 26.9611V29.3651C32.9607 29.7508 32.648 30.0635 32.2623 30.0635H17.7381C17.3524 30.0635 17.0397 29.7508 17.0397 29.3651V26.9611ZM17.0397 15.1212C17.0397 14.503 17.5426 14 18.1609 14H31.8395C32.4578 14 32.9607 14.503 32.9607 15.1212V26.0318C32.6971 25.7234 32.3101 25.5238 31.8726 25.5238H18.1278C17.6903 25.5238 17.3033 25.7234 17.0397 26.0318V15.1212ZM16.3031 34.9723L16.0335 35.7138C15.9703 35.8877 15.8386 36 15.6979 36H14.2807C14.14 36 14.0082 35.8877 13.945 35.7138L13.6755 34.9723C13.6731 34.9658 13.6729 34.9589 13.6708 34.9524H16.3078C16.3057 34.9589 16.3055 34.9658 16.3031 34.9723ZM36.4146 34.9723L36.1451 35.7138C36.0819 35.8877 35.9501 36 35.8094 36H34.3922C34.2515 36 34.1198 35.8877 34.0566 35.7138L33.787 34.9723C33.7846 34.9658 33.7844 34.9589 33.7823 34.9524H36.4193C36.4172 34.9589 36.417 34.9658 36.4146 34.9723ZM37.5004 33.5556C37.5004 34.0203 37.1942 34.4107 36.7745 34.5474C36.6725 34.5806 36.5657 34.6032 36.4528 34.6032H13.5476C13.4658 34.6032 13.387 34.5915 13.3105 34.5737C12.8471 34.4656 12.5 34.0513 12.5 33.5556V20.9841C12.5 20.4065 12.97 19.9365 13.5476 19.9365H15.6429C16.2205 19.9365 16.6905 20.4065 16.6905 20.9841V29.3651C16.6905 29.6735 16.8269 29.9483 17.0397 30.1402C17.2255 30.3077 17.4688 30.4127 17.7381 30.4127H32.2623C32.5316 30.4127 32.775 30.3077 32.9607 30.1402C33.1735 29.9483 33.3099 29.6735 33.3099 29.3651V20.9841C33.3099 20.4065 33.7799 19.9365 34.3576 19.9365H36.4528C37.0304 19.9365 37.5004 20.4065 37.5004 20.9841V33.5556Z" fill="#282828"/>
</svg>
