<svg width="601" height="600" viewBox="0 0 601 600" fill="none" xmlns="http://www.w3.org/2000/svg">
<circle cx="300.769" cy="300.007" r="299.337" transform="rotate(-180 300.769 300.007)" fill="#D0D0D0"/>
<path d="M2.10751 300C2.10749 464.953 135.828 598.674 300.781 598.674C465.734 598.674 599.455 464.953 599.455 300C599.455 135.047 465.734 1.32622 300.781 1.32621C135.828 1.32619 2.10752 135.047 2.10751 300ZM0.781276 300C0.781291 134.314 135.096 -4.07115e-05 300.781 -2.62268e-05C466.467 -1.17422e-05 600.781 134.315 600.781 300C600.781 465.685 466.467 600 300.781 600C135.096 600 0.781262 465.685 0.781276 300Z" fill="#282828"/>
<path d="M3.43924 300.816C3.43922 462.334 134.376 593.271 295.894 593.271C457.413 593.271 588.35 462.334 588.35 300.816C588.35 139.297 457.413 8.36071 295.894 8.36069C134.376 8.36074 3.43925 139.297 3.43924 300.816ZM2.11294 300.816C2.11302 138.565 133.643 7.03444 295.894 7.03446C458.145 7.03447 589.676 138.565 589.676 300.816C589.676 463.067 458.145 594.597 295.894 594.597C133.643 594.597 2.11293 463.067 2.11294 300.816Z" fill="#282828"/>
<path d="M4.76059 301.631C4.76057 459.721 132.917 587.877 291.007 587.877C449.096 587.877 577.253 459.721 577.253 301.631C577.253 143.542 449.096 15.3854 291.007 15.3853C132.917 15.3854 4.7606 143.542 4.76059 301.631ZM3.43429 301.631C3.43437 142.81 132.185 14.0591 291.007 14.0591C449.828 14.0591 578.579 142.81 578.579 301.631C578.579 460.453 449.828 589.204 291.007 589.204C132.185 589.204 3.43428 460.453 3.43429 301.631Z" fill="#282828"/>
<path d="M6.10885 302.447C6.1089 457.102 131.482 582.475 286.136 582.475C440.791 582.475 566.164 457.102 566.164 302.447C566.164 147.793 440.791 22.4199 286.136 22.4198C131.482 22.4198 6.10887 147.793 6.10885 302.447ZM4.78256 302.447C4.78257 147.06 130.749 21.0936 286.136 21.0936C441.524 21.0937 567.49 147.06 567.49 302.447C567.49 457.835 441.524 583.801 286.136 583.801C130.749 583.801 4.78267 457.835 4.78256 302.447Z" fill="#282828"/>
<path d="M7.44027 303.263C7.44032 454.484 130.029 577.072 281.249 577.072C432.47 577.072 555.058 454.484 555.058 303.263C555.058 152.043 432.47 29.4541 281.25 29.4541C130.029 29.4541 7.44029 152.043 7.44027 303.263ZM6.11404 303.263C6.11405 151.31 129.296 28.1278 281.25 28.1278C433.203 28.1279 556.385 151.31 556.385 303.263C556.385 455.216 433.202 578.398 281.249 578.399C129.296 578.398 6.11409 455.216 6.11404 303.263Z" fill="#282828"/>
<path d="M8.76187 304.079C8.76191 451.87 128.571 571.679 276.362 571.679C424.153 571.679 543.961 451.87 543.961 304.079C543.961 156.288 424.153 36.4794 276.362 36.4793C128.571 36.4793 8.76188 156.288 8.76187 304.079ZM7.43563 304.079C7.43565 155.555 127.838 35.1531 276.362 35.1531C424.885 35.1532 545.288 155.555 545.288 304.079C545.288 452.603 424.885 573.005 276.362 573.005C127.838 573.005 7.43568 452.603 7.43563 304.079Z" fill="#282828"/>
<path d="M10.0957 304.895C10.0957 449.252 127.12 566.276 271.477 566.276C415.834 566.276 532.858 449.252 532.858 304.895C532.858 160.538 415.834 43.5136 271.477 43.5136C127.12 43.5136 10.0957 160.538 10.0957 304.895ZM8.76937 304.895C8.76939 159.805 126.388 42.1873 271.477 42.1873C416.566 42.1874 534.184 159.805 534.184 304.895C534.184 449.984 416.566 567.602 271.477 567.602C126.388 567.602 8.76942 449.984 8.76937 304.895Z" fill="#282828"/>
<path d="M11.4173 305.71C11.4172 446.638 125.662 560.882 266.589 560.882C407.517 560.882 521.761 446.638 521.761 305.71C521.761 164.783 407.517 50.5385 266.589 50.5385C125.662 50.5385 11.4173 164.783 11.4173 305.71ZM10.091 305.71C10.091 164.05 124.929 49.2122 266.589 49.2123C408.249 49.2123 523.087 164.05 523.087 305.71C523.087 447.37 408.249 562.209 266.589 562.209C124.929 562.209 10.091 447.37 10.091 305.71Z" fill="#282828"/>
<path d="M12.7487 306.526C12.7487 444.019 124.209 555.48 261.702 555.48C399.195 555.48 510.656 444.019 510.656 306.526C510.656 169.033 399.195 57.5727 261.702 57.5727C124.209 57.5727 12.7487 169.033 12.7487 306.526ZM11.4224 306.526C11.4225 168.301 123.477 56.2465 261.702 56.2465C399.928 56.2465 511.982 168.301 511.982 306.526C511.982 444.752 399.928 556.806 261.702 556.806C123.476 556.806 11.4224 444.752 11.4224 306.526Z" fill="#282828"/>
<path d="M14.0886 307.342C14.0886 441.401 122.765 550.077 256.823 550.077C390.882 550.077 499.559 441.401 499.559 307.342C499.559 173.283 390.882 64.607 256.824 64.607C122.765 64.607 14.0887 173.283 14.0886 307.342ZM12.7624 307.342C12.7624 172.551 122.032 63.2807 256.824 63.2807C391.615 63.2807 500.885 172.551 500.885 307.342C500.885 442.133 391.615 551.403 256.823 551.403C122.032 551.403 12.7624 442.133 12.7624 307.342Z" fill="#282828"/>
<path d="M24.7788 303.054C24.7788 433.183 130.269 538.674 260.398 538.674C390.527 538.674 496.017 433.183 496.017 303.055C496.017 172.926 390.527 67.4354 260.398 67.4353C130.269 67.4353 24.7788 172.926 24.7788 303.054ZM23.4525 303.054C23.4526 172.193 129.537 66.1091 260.398 66.1091C391.259 66.1091 497.343 172.193 497.343 303.055C497.343 433.916 391.259 540 260.398 540C129.537 540 23.4525 433.916 23.4525 303.054Z" fill="#282828"/>
<path d="M35.4809 298.767C35.4809 424.961 137.781 527.261 263.975 527.261C390.169 527.261 492.469 424.961 492.469 298.767C492.469 172.573 390.169 70.2727 263.975 70.2727C137.781 70.2727 35.4809 172.573 35.4809 298.767ZM34.1546 298.767C34.1546 171.84 137.049 68.9465 263.975 68.9464C390.901 68.9465 493.796 171.841 493.796 298.767C493.796 425.693 390.901 528.587 263.975 528.587C137.049 528.587 34.1546 425.693 34.1546 298.767Z" fill="#282828"/>
<path d="M46.1891 294.479C46.1891 416.738 145.3 515.849 267.558 515.849C389.817 515.849 488.928 416.738 488.928 294.479C488.928 172.221 389.817 73.1101 267.558 73.11C145.3 73.11 46.1891 172.22 46.1891 294.479ZM44.8628 294.479C44.8628 171.488 144.567 71.7838 267.558 71.7838C390.55 71.7838 490.254 171.488 490.254 294.479C490.254 417.471 390.55 517.175 267.558 517.175C144.567 517.175 44.8628 417.471 44.8628 294.479Z" fill="#282828"/>
<path d="M56.8849 290.192C56.885 408.516 152.806 504.436 271.129 504.436C389.453 504.436 485.374 408.516 485.374 290.192C485.374 171.868 389.453 75.9474 271.13 75.9474C152.806 75.9473 56.8849 171.868 56.8849 290.192ZM55.5587 290.192C55.5587 171.136 152.073 74.6211 271.13 74.6211C390.186 74.6212 486.7 171.136 486.7 290.192C486.7 409.248 390.186 505.763 271.129 505.763C152.073 505.763 55.5587 409.248 55.5587 290.192Z" fill="#282828"/>
<path d="M67.5833 285.904C67.5833 400.298 160.318 493.033 274.712 493.033C389.106 493.033 481.841 400.298 481.841 285.904C481.841 171.51 389.106 78.7756 274.712 78.7755C160.318 78.7755 67.5834 171.51 67.5833 285.904ZM66.257 285.904C66.2571 170.778 159.586 77.4492 274.712 77.4493C389.838 77.4493 483.167 170.778 483.167 285.904C483.167 401.031 389.838 494.359 274.712 494.359C159.586 494.359 66.257 401.031 66.257 285.904Z" fill="#282828"/>
<path d="M78.2916 281.617C78.2916 392.076 167.836 481.62 278.295 481.62C388.754 481.62 478.299 392.076 478.299 281.617C478.299 171.158 388.754 81.6129 278.295 81.6129C167.836 81.6129 78.2916 171.158 78.2916 281.617ZM76.9653 281.617C76.9653 170.425 167.104 80.2866 278.295 80.2866C389.487 80.2867 479.625 170.425 479.625 281.617C479.625 392.808 389.487 482.947 278.295 482.947C167.104 482.947 76.9654 392.808 76.9653 281.617Z" fill="#282828"/>
<path d="M88.9856 277.329C88.9856 383.853 175.34 470.208 281.864 470.208C388.388 470.208 474.743 383.853 474.743 277.329C474.743 170.805 388.388 84.4506 281.864 84.4506C175.34 84.4506 88.9856 170.805 88.9856 277.329ZM87.6593 277.329C87.6594 170.073 174.608 83.1244 281.864 83.1244C389.121 83.1244 476.069 170.073 476.069 277.329C476.069 384.586 389.121 471.534 281.864 471.534C174.608 471.534 87.6593 384.586 87.6593 277.329Z" fill="#282828"/>
<path d="M99.6876 273.051C99.6876 375.64 182.852 458.804 285.441 458.804C388.03 458.804 471.195 375.64 471.195 273.051C471.195 170.462 388.031 87.2968 285.441 87.2967C182.852 87.2967 99.6876 170.462 99.6876 273.051ZM98.3614 273.051C98.3614 169.729 182.12 85.9705 285.441 85.9705C388.763 85.9705 472.522 169.729 472.522 273.051C472.522 376.372 388.763 460.131 285.441 460.131C182.12 460.131 98.3614 376.372 98.3614 273.051Z" fill="#282828"/>
<path d="M110.386 268.763C110.386 367.422 190.365 447.401 289.024 447.401C387.683 447.401 467.662 367.422 467.662 268.763C467.662 170.104 387.683 90.1249 289.024 90.1249C190.365 90.1249 110.386 170.104 110.386 268.763ZM109.06 268.763C109.06 169.371 189.632 88.7987 289.024 88.7986C388.415 88.7987 468.988 169.371 468.988 268.763C468.988 368.154 388.415 448.727 289.024 448.727C189.632 448.727 109.06 368.154 109.06 268.763Z" fill="#282828"/>
<path d="M113.044 263.293C113.044 350.953 184.107 422.016 271.767 422.016C359.427 422.016 430.489 350.953 430.49 263.293C430.489 175.633 359.427 104.57 271.767 104.57C184.107 104.57 113.044 175.633 113.044 263.293ZM111.718 263.293C111.718 174.901 183.374 103.244 271.767 103.244C360.159 103.244 431.816 174.901 431.816 263.293C431.816 351.686 360.159 423.342 271.767 423.342C183.374 423.342 111.718 351.686 111.718 263.293Z" fill="#282828"/>
<path d="M115.42 258.513C115.42 335.189 177.578 397.347 254.254 397.347C330.931 397.347 393.089 335.189 393.089 258.513C393.089 181.837 330.931 119.678 254.254 119.678C177.578 119.678 115.42 181.837 115.42 258.513ZM114.093 258.513C114.093 181.104 176.846 118.352 254.254 118.352C331.663 118.352 394.415 181.104 394.415 258.513C394.415 335.922 331.663 398.674 254.254 398.674C176.846 398.674 114.093 335.922 114.093 258.513Z" fill="#282828"/>
<path d="M117.988 253.166C117.988 318.878 171.258 372.148 236.971 372.149C302.683 372.149 355.954 318.878 355.954 253.166C355.954 187.453 302.683 134.183 236.971 134.183C171.259 134.183 117.988 187.453 117.988 253.166ZM116.662 253.166C116.662 186.721 170.526 132.857 236.971 132.857C303.416 132.857 357.28 186.721 357.28 253.166C357.28 319.61 303.416 373.475 236.971 373.475C170.526 373.475 116.662 319.61 116.662 253.166Z" fill="#282828"/>
<path d="M120.43 248.286C120.43 303.069 164.84 347.48 219.624 347.48C274.408 347.48 318.818 303.069 318.818 248.286C318.818 193.502 274.408 149.091 219.624 149.091C164.84 149.091 120.43 193.502 120.43 248.286ZM119.103 248.286C119.103 192.77 164.108 147.765 219.624 147.765C275.14 147.765 320.145 192.77 320.145 248.286C320.145 303.802 275.14 348.806 219.624 348.806C164.108 348.806 119.103 303.802 119.103 248.286Z" fill="#282828"/>
<path d="M122.955 243.315C122.955 287.22 158.547 322.812 202.452 322.812C246.357 322.812 281.948 287.22 281.948 243.315C281.948 199.41 246.357 163.818 202.452 163.818C158.547 163.818 122.955 199.41 122.955 243.315ZM121.629 243.315C121.629 198.678 157.815 162.492 202.452 162.492C247.089 162.492 283.275 198.678 283.275 243.315C283.275 287.952 247.089 324.138 202.452 324.138C157.815 324.138 121.629 287.952 121.629 243.315Z" fill="#282828"/>
<path d="M125.594 237.871C125.594 271.012 152.46 297.878 185.602 297.878C218.743 297.878 245.609 271.012 245.609 237.871C245.609 204.729 218.743 177.863 185.602 177.863C152.46 177.863 125.594 204.729 125.594 237.871ZM124.268 237.871C124.268 203.997 151.728 176.537 185.602 176.537C219.475 176.537 246.935 203.997 246.935 237.871C246.935 271.744 219.475 299.204 185.602 299.204C151.728 299.204 124.268 271.744 124.268 237.871Z" fill="#282828"/>
<path d="M127.837 234.35C127.837 258.888 147.729 278.78 172.267 278.78C196.805 278.78 216.696 258.888 216.696 234.35C216.696 209.812 196.805 189.92 172.267 189.92C147.729 189.92 127.837 209.812 127.837 234.35ZM126.511 234.35C126.511 209.08 146.996 188.594 172.267 188.594C197.537 188.594 218.023 209.08 218.023 234.35C218.023 259.62 197.537 280.106 172.267 280.106C146.996 280.106 126.511 259.62 126.511 234.35Z" fill="#282828"/>
<path d="M130.49 229.443C130.49 244.678 142.84 257.029 158.076 257.029C173.311 257.029 185.662 244.678 185.662 229.443C185.662 214.207 173.311 201.857 158.076 201.857C142.84 201.857 130.49 214.207 130.49 229.443ZM129.163 229.443C129.163 213.475 142.108 200.53 158.076 200.53C174.044 200.53 186.988 213.475 186.988 229.443C186.988 245.411 174.044 258.355 158.076 258.355C142.108 258.355 129.163 245.411 129.163 229.443Z" fill="#282828"/>
<path d="M132.612 226.658C132.612 234.935 139.321 241.645 147.598 241.645C155.875 241.645 162.585 234.935 162.585 226.658C162.585 218.381 155.875 211.671 147.598 211.671C139.321 211.671 132.612 218.381 132.612 226.658ZM131.285 226.658C131.285 217.648 138.589 210.345 147.598 210.345C156.608 210.345 163.911 217.648 163.911 226.658C163.911 235.667 156.608 242.971 147.598 242.971C138.589 242.971 131.285 235.667 131.285 226.658Z" fill="#282828"/>
</svg>
