<svg width="258" height="258" viewBox="0 0 258 258" fill="none" xmlns="http://www.w3.org/2000/svg">
<circle cx="128.545" cy="128.537" r="128.257" fill="#BE9140"/>
<path d="M256.514 128.541C256.514 57.8636 199.218 0.568262 128.541 0.568262C57.8636 0.568263 0.568263 57.8636 0.568262 128.541C0.568262 199.218 57.8636 256.514 128.541 256.514C199.218 256.514 256.514 199.218 256.514 128.541ZM257.082 128.541C257.082 199.532 199.532 257.082 128.541 257.082C57.5498 257.082 0 199.532 0 128.541C8.20358e-07 57.5498 57.5498 8.19507e-07 128.541 0C199.532 0 257.082 57.5498 257.082 128.541Z" fill="#282828"/>
<path d="M255.943 128.191C255.943 58.9856 199.841 2.88311 130.635 2.8831C61.429 2.8831 5.32657 58.9856 5.32657 128.191C5.32658 197.397 61.429 253.5 130.635 253.5C199.841 253.5 255.943 197.397 255.943 128.191ZM256.511 128.191C256.511 197.711 200.155 254.068 130.635 254.068C61.1152 254.068 4.75832 197.711 4.75831 128.191C4.75831 58.6717 61.1152 2.31484 130.635 2.31484C200.155 2.31485 256.511 58.6717 256.511 128.191Z" fill="#282828"/>
<path d="M255.377 127.842C255.377 60.1055 200.466 5.19418 132.729 5.19416C64.9926 5.19416 10.0813 60.1055 10.0813 127.842C10.0813 195.578 64.9926 250.49 132.729 250.49C200.466 250.49 255.377 195.578 255.377 127.842ZM255.945 127.842C255.945 195.892 200.779 251.058 132.729 251.058C64.6788 251.058 9.51308 195.892 9.51307 127.842C9.51307 59.7916 64.6788 4.6259 132.729 4.6259C200.779 4.62591 255.945 59.7916 255.945 127.842Z" fill="#282828"/>
<path d="M254.799 127.492C254.799 61.2273 201.081 7.509 134.816 7.509C68.5509 7.50903 14.8326 61.2274 14.8325 127.492C14.8325 193.757 68.5509 247.476 134.816 247.476C201.081 247.476 254.799 193.757 254.799 127.492ZM255.367 127.492C255.367 194.071 201.395 248.044 134.816 248.044C68.237 248.044 14.2643 194.071 14.2643 127.492C14.2643 60.9135 68.2371 6.94077 134.816 6.94074C201.395 6.94074 255.367 60.9135 255.367 127.492Z" fill="#282828"/>
<path d="M254.229 127.143C254.229 62.3493 201.703 9.82384 136.91 9.82384C72.1163 9.82386 19.5909 62.3493 19.5908 127.143C19.5908 191.936 72.1163 244.462 136.91 244.462C201.703 244.462 254.229 191.936 254.229 127.143ZM254.797 127.143C254.797 192.25 202.017 245.03 136.91 245.03C71.8025 245.03 19.0226 192.25 19.0226 127.143C19.0226 62.0355 71.8025 9.2556 136.91 9.25557C202.017 9.25557 254.797 62.0354 254.797 127.143Z" fill="#282828"/>
<path d="M253.662 126.793C253.662 63.4692 202.328 12.1348 139.004 12.1348C75.6799 12.1349 24.3456 63.4692 24.3456 126.793C24.3456 190.117 75.6799 241.452 139.004 241.452C202.328 241.452 253.662 190.117 253.662 126.793ZM254.231 126.793C254.231 190.431 202.642 242.02 139.004 242.02C75.3661 242.02 23.7773 190.431 23.7773 126.793C23.7774 63.1553 75.3661 11.5666 139.004 11.5666C202.642 11.5666 254.231 63.1553 254.231 126.793Z" fill="#282828"/>
<path d="M253.091 126.444C253.091 64.5911 202.95 14.4497 141.097 14.4497C79.2444 14.4497 29.103 64.5911 29.103 126.444C29.103 188.296 79.2444 238.438 141.097 238.438C202.95 238.438 253.091 188.296 253.091 126.444ZM253.659 126.444C253.659 188.61 203.263 239.006 141.097 239.006C78.9306 239.006 28.5348 188.61 28.5348 126.444C28.5348 64.2773 78.9306 13.8814 141.097 13.8814C203.263 13.8814 253.659 64.2773 253.659 126.444Z" fill="#282828"/>
<path d="M252.525 126.094C252.525 65.711 203.574 16.7607 143.191 16.7607C82.8081 16.7608 33.8578 65.711 33.8578 126.094C33.8578 186.477 82.8081 235.428 143.191 235.428C203.574 235.428 252.525 186.477 252.525 126.094ZM253.093 126.094C253.093 186.791 203.888 235.996 143.191 235.996C82.4942 235.996 33.2895 186.791 33.2895 126.094C33.2895 65.3972 82.4942 16.1925 143.191 16.1925C203.888 16.1925 253.093 65.3972 253.093 126.094Z" fill="#282828"/>
<path d="M251.954 125.745C251.954 66.833 204.197 19.0756 145.285 19.0756C86.3735 19.0756 38.6161 66.833 38.6161 125.745C38.6161 184.656 86.3735 232.414 145.285 232.414C204.197 232.414 251.954 184.656 251.954 125.745ZM252.523 125.745C252.523 184.97 204.511 232.982 145.285 232.982C86.0597 232.982 38.0479 184.97 38.0478 125.745C38.0478 66.5191 86.0596 18.5073 145.285 18.5073C204.511 18.5073 252.523 66.5191 252.523 125.745Z" fill="#282828"/>
<path d="M251.38 125.395C251.38 67.9549 204.816 21.3904 147.376 21.3904C89.9354 21.3904 43.3709 67.9549 43.3709 125.395C43.3709 182.835 89.9354 229.4 147.376 229.4C204.816 229.4 251.38 182.835 251.38 125.395ZM251.948 125.395C251.948 183.149 205.13 229.968 147.376 229.968C89.6215 229.968 42.8026 183.149 42.8026 125.395C42.8026 67.6411 89.6215 20.8222 147.376 20.8222C205.13 20.8222 251.948 67.6411 251.948 125.395Z" fill="#282828"/>
<path d="M246.8 127.232C246.8 71.4759 201.6 26.2765 145.844 26.2765C90.0877 26.2765 44.8883 71.4759 44.8883 127.232C44.8883 182.988 90.0877 228.188 145.844 228.188C201.6 228.188 246.8 182.988 246.8 127.232ZM247.368 127.232C247.368 183.302 201.914 228.756 145.844 228.756C89.7739 228.756 44.32 183.302 44.32 127.232C44.32 71.162 89.7739 25.7082 145.844 25.7082C201.914 25.7082 247.368 71.162 247.368 127.232Z" fill="#282828"/>
<path d="M242.214 129.069C242.214 74.9991 198.382 31.1664 144.311 31.1664C90.2411 31.1664 46.4084 74.999 46.4084 129.069C46.4084 183.14 90.2411 226.972 144.311 226.972C198.382 226.972 242.214 183.14 242.214 129.069ZM242.782 129.069C242.782 183.453 198.695 227.54 144.311 227.54C89.9272 227.54 45.8402 183.453 45.8401 129.069C45.8401 74.6852 89.9272 30.5981 144.311 30.5981C198.695 30.5981 242.782 74.6852 242.782 129.069Z" fill="#282828"/>
<path d="M237.626 130.906C237.626 78.5221 195.16 36.0563 142.776 36.0563C90.3917 36.0563 47.9258 78.5221 47.9258 130.906C47.9258 183.291 90.3917 225.756 142.776 225.756C195.16 225.756 237.626 183.291 237.626 130.906ZM238.194 130.906C238.194 183.604 195.474 226.325 142.776 226.325C90.0778 226.325 47.3576 183.604 47.3576 130.906C47.3576 78.2083 90.0778 35.488 142.776 35.488C195.474 35.488 238.194 78.2083 238.194 130.906Z" fill="#282828"/>
<path d="M233.043 132.743C233.043 82.0452 191.944 40.9461 141.246 40.9461C90.5476 40.9462 49.4486 82.0452 49.4486 132.743C49.4486 183.442 90.5476 224.541 141.246 224.541C191.944 224.541 233.043 183.442 233.043 132.743ZM233.611 132.743C233.611 183.755 192.258 225.109 141.246 225.109C90.2338 225.109 48.8803 183.755 48.8803 132.743C48.8804 81.7313 90.2338 40.3779 141.246 40.3779C192.258 40.3779 233.611 81.7313 233.611 132.743Z" fill="#282828"/>
<path d="M228.459 134.581C228.459 85.5662 188.725 45.8322 139.711 45.8322C90.6965 45.8322 50.9625 85.5662 50.9625 134.581C50.9625 183.595 90.6965 223.329 139.711 223.329C188.725 223.329 228.459 183.595 228.459 134.581ZM229.028 134.581C229.028 183.909 189.039 223.897 139.711 223.897C90.3827 223.897 50.3942 183.909 50.3942 134.581C50.3942 85.2524 90.3827 45.2639 139.711 45.2639C189.039 45.2639 229.028 85.2524 229.028 134.581Z" fill="#282828"/>
<path d="M223.871 136.418C223.871 89.0893 185.504 50.7221 138.175 50.7221C90.8471 50.7221 52.4799 89.0893 52.4799 136.418C52.4799 183.746 90.8471 222.113 138.175 222.113C185.504 222.113 223.871 183.746 223.871 136.418ZM224.439 136.418C224.439 184.06 185.818 222.682 138.175 222.682C90.5333 222.682 51.9117 184.06 51.9117 136.418C51.9117 88.7754 90.5333 50.1538 138.175 50.1538C185.818 50.1538 224.439 88.7754 224.439 136.418Z" fill="#282828"/>
<path d="M219.289 138.255C219.289 92.6124 182.289 55.6119 136.646 55.6119C91.004 55.6119 54.0036 92.6124 54.0036 138.255C54.0036 183.897 91.004 220.897 136.646 220.897C182.289 220.897 219.289 183.897 219.289 138.255ZM219.857 138.255C219.857 184.211 182.603 221.466 136.646 221.466C90.6902 221.466 53.4353 184.211 53.4353 138.255C53.4353 92.2985 90.6902 55.0437 136.646 55.0437C182.603 55.0437 219.857 92.2985 219.857 138.255Z" fill="#282828"/>
<path d="M214.704 140.088C214.704 96.1317 179.07 60.498 135.114 60.498C91.1573 60.498 55.5237 96.1317 55.5237 140.088C55.5237 184.044 91.1573 219.678 135.114 219.678C179.07 219.678 214.704 184.044 214.704 140.088ZM215.272 140.088C215.272 184.358 179.384 220.246 135.114 220.246C90.8435 220.246 54.9554 184.358 54.9554 140.088C54.9554 95.8178 90.8435 59.9298 135.114 59.9298C179.384 59.9298 215.272 95.8178 215.272 140.088Z" fill="#282828"/>
<path d="M210.12 141.925C210.12 99.6527 175.851 65.3841 133.579 65.3841C91.3062 65.3841 57.0376 99.6527 57.0376 141.925C57.0376 184.198 91.3062 218.466 133.579 218.466C175.851 218.466 210.12 184.198 210.12 141.925ZM210.688 141.925C210.688 184.511 176.165 219.034 133.579 219.034C90.9924 219.034 56.4693 184.511 56.4693 141.925C56.4693 99.3389 90.9924 64.8158 133.579 64.8158C176.165 64.8159 210.688 99.3389 210.688 141.925Z" fill="#282828"/>
<path d="M208.981 144.269C208.981 106.709 178.533 76.2608 140.973 76.2608C103.413 76.2608 72.9649 106.709 72.9649 144.269C72.9649 181.828 103.413 212.277 140.973 212.277C178.533 212.277 208.981 181.828 208.981 144.269ZM209.549 144.269C209.549 182.142 178.846 212.845 140.973 212.845C103.099 212.845 72.3966 182.142 72.3966 144.269C72.3966 106.395 103.099 75.6926 140.973 75.6926C178.846 75.6926 209.549 106.395 209.549 144.269Z" fill="#282828"/>
<path d="M207.963 146.317C207.963 113.463 181.33 86.8305 148.476 86.8305C115.623 86.8305 88.9899 113.463 88.9899 146.317C88.9899 179.17 115.623 205.803 148.476 205.803C181.33 205.803 207.963 179.17 207.963 146.317ZM208.531 146.317C208.531 179.484 181.644 206.372 148.476 206.372C115.309 206.372 88.4216 179.484 88.4216 146.317C88.4217 113.15 115.309 86.2623 148.476 86.2622C181.644 86.2622 208.531 113.15 208.531 146.317Z" fill="#282828"/>
<path d="M206.862 148.608C206.862 120.452 184.038 97.6275 155.882 97.6275C127.726 97.6275 104.901 120.452 104.901 148.608C104.901 176.764 127.726 199.589 155.882 199.589C184.038 199.589 206.862 176.764 206.862 148.608ZM207.431 148.608C207.431 177.078 184.351 200.157 155.882 200.157C127.412 200.157 104.333 177.078 104.333 148.608C104.333 120.138 127.412 97.0592 155.882 97.0592C184.351 97.0592 207.431 120.138 207.431 148.608Z" fill="#282828"/>
<path d="M205.816 150.699C205.816 127.226 186.788 108.197 163.314 108.197C139.841 108.197 120.813 127.226 120.813 150.699C120.813 174.172 139.841 193.201 163.314 193.201C186.788 193.201 205.816 174.172 205.816 150.699ZM206.384 150.699C206.384 174.486 187.101 193.769 163.314 193.769C139.527 193.769 120.244 174.486 120.244 150.699C120.244 126.912 139.527 107.629 163.314 107.629C187.101 107.629 206.384 126.912 206.384 150.699Z" fill="#282828"/>
<path d="M204.734 152.829C204.734 134.017 189.484 118.767 170.672 118.767C151.86 118.767 136.61 134.017 136.61 152.829C136.61 171.641 151.86 186.891 170.672 186.891C189.484 186.891 204.734 171.641 204.734 152.829ZM205.302 152.829C205.302 171.954 189.798 187.459 170.672 187.459C151.546 187.459 136.042 171.954 136.042 152.829C136.042 133.703 151.546 118.199 170.672 118.199C189.798 118.199 205.302 133.703 205.302 152.829Z" fill="#282828"/>
<path d="M203.603 155.162C203.603 140.962 192.092 129.45 177.892 129.45C163.692 129.45 152.181 140.962 152.181 155.162C152.181 169.361 163.692 180.873 177.892 180.873C192.092 180.873 203.603 169.361 203.603 155.162ZM204.172 155.162C204.172 169.675 192.406 181.441 177.892 181.441C163.378 181.441 151.612 169.675 151.612 155.162C151.612 140.648 163.378 128.882 177.892 128.882C192.406 128.882 204.172 140.648 204.172 155.162Z" fill="#282828"/>
<path d="M202.642 156.67C202.642 146.156 194.119 137.633 183.606 137.633C173.092 137.633 164.569 146.156 164.569 156.67C164.569 167.184 173.092 175.707 183.606 175.707C194.119 175.707 202.642 167.184 202.642 156.67ZM203.211 156.67C203.211 167.498 194.433 176.275 183.606 176.275C172.778 176.275 164.001 167.498 164.001 156.67C164.001 145.842 172.778 137.065 183.606 137.065C194.433 137.065 203.211 145.842 203.211 156.67Z" fill="#282828"/>
<path d="M201.506 158.773C201.506 152.245 196.214 146.953 189.686 146.953C183.158 146.953 177.866 152.245 177.866 158.773C177.866 165.3 183.158 170.592 189.686 170.592C196.214 170.592 201.506 165.3 201.506 158.773ZM202.074 158.773C202.074 165.614 196.528 171.161 189.686 171.161C182.844 171.161 177.298 165.614 177.298 158.773C177.298 151.931 182.844 146.384 189.686 146.384C196.528 146.384 202.074 151.931 202.074 158.773Z" fill="#282828"/>
<path d="M200.597 159.966C200.597 156.419 197.722 153.545 194.175 153.545C190.629 153.545 187.754 156.419 187.754 159.966C187.754 163.512 190.629 166.387 194.175 166.387C197.722 166.387 200.597 163.512 200.597 159.966ZM201.165 159.966C201.165 163.826 198.036 166.956 194.175 166.956C190.315 166.956 187.186 163.826 187.186 159.966C187.186 156.106 190.315 152.976 194.175 152.976C198.036 152.976 201.165 156.106 201.165 159.966Z" fill="#282828"/>
</svg>
