<svg width="50" height="50" viewBox="0 0 50 50" fill="none" xmlns="http://www.w3.org/2000/svg">
<path d="M30.4534 35.4971H25.3665V22.2364H24.6246V35.4971H19.543C19.3411 35.4971 19.1699 35.663 19.1699 35.8702C19.1699 36.0722 19.3411 36.2364 19.543 36.2364H30.4526C30.6598 36.2364 30.8257 36.0704 30.8257 35.8702C30.8266 35.6639 30.6597 35.4971 30.4534 35.4971Z" fill="#282828"/>
<path d="M28.4666 29.483C28.4666 29.9641 28.8573 30.3592 29.3428 30.3592C29.8283 30.3592 30.219 29.9615 30.219 29.483C30.219 28.9974 29.8283 28.5997 29.3428 28.5997C28.8573 28.6015 28.4666 28.9974 28.4666 29.483Z" fill="#282828"/>
<path d="M18.5 13.7632H31.5V21.4971H18.5V13.7632Z" fill="#282828"/>
<path d="M28.9697 22.2364H29.7116V27.907H28.9697V22.2364Z" fill="#282828"/>
</svg>
