<svg width="50" height="50" viewBox="0 0 50 50" fill="none" xmlns="http://www.w3.org/2000/svg">
<path d="M37.0254 21L37.0254 15L24.0254 15L24.0254 21L37.0254 21Z" fill="#282828"/>
<path d="M22.9727 21L22.9727 15L12.9727 15L12.9727 21L22.9727 21Z" fill="#282828"/>
<path d="M37.0273 35L37.0273 29L24.0273 29L24.0273 35L37.0273 35Z" fill="#282828"/>
<path d="M22.9727 35L22.9727 29L12.9727 29L12.9727 35L22.9727 35Z" fill="#282828"/>
<path d="M32.0225 28L32.0225 22L17.0225 22L17.0225 28L32.0225 28Z" fill="#282828"/>
<path d="M16.0146 28L16.0146 22L13.0146 22L13.0146 28L16.0146 28Z" fill="#282828"/>
<path d="M37.0156 28L37.0156 22L33.0156 22L33.0156 28L37.0156 28Z" fill="#282828"/>
</svg>
