<svg width="10" height="10" viewBox="0 0 10 10" fill="none" xmlns="http://www.w3.org/2000/svg">
<path d="M1.37945 0.570312C1.60745 0.570312 1.79945 0.648314 1.95545 0.804314C2.11145 0.960313 2.18945 1.15231 2.18945 1.38031C2.18945 1.60831 2.11145 1.80031 1.95545 1.95631C1.79945 2.11231 1.60745 2.19031 1.37945 2.19031C1.15145 2.19031 0.959453 2.11231 0.803453 1.95631C0.647453 1.80031 0.569452 1.60831 0.569452 1.38031C0.569452 1.15231 0.647453 0.960313 0.803453 0.804314C0.959453 0.648313 1.15145 0.570312 1.37945 0.570312Z" fill="#282828"/>
<path d="M8.61969 0.570312C8.84769 0.570312 9.03969 0.648314 9.19569 0.804314C9.35169 0.960313 9.42969 1.15231 9.42969 1.38031C9.42969 1.60831 9.35169 1.80031 9.19569 1.95631C9.03969 2.11231 8.84769 2.19031 8.61969 2.19031C8.39169 2.19031 8.19969 2.11231 8.04369 1.95631C7.88769 1.80031 7.80969 1.60831 7.80969 1.38031C7.80969 1.15231 7.88769 0.960313 8.04369 0.804314C8.19969 0.648313 8.39169 0.570312 8.61969 0.570312Z" fill="#282828"/>
<path d="M5.00055 4.18994C5.22855 4.18994 5.42055 4.26794 5.57655 4.42394C5.73255 4.57994 5.81055 4.77194 5.81055 4.99994C5.81055 5.22794 5.73255 5.41994 5.57655 5.57594C5.42055 5.73194 5.22855 5.80994 5.00055 5.80994C4.77255 5.80994 4.58055 5.73194 4.42455 5.57594C4.26855 5.41994 4.19055 5.22794 4.19055 4.99994C4.19055 4.77194 4.26855 4.57994 4.42455 4.42394C4.58055 4.26794 4.77255 4.18994 5.00055 4.18994Z" fill="#282828"/>
<path d="M1.37945 7.81006C1.60745 7.81006 1.79945 7.88806 1.95545 8.04406C2.11145 8.20006 2.18945 8.39206 2.18945 8.62006C2.18945 8.84806 2.11145 9.04006 1.95545 9.19606C1.79945 9.35206 1.60745 9.43005 1.37945 9.43005C1.15145 9.43005 0.959453 9.35206 0.803453 9.19606C0.647453 9.04006 0.569452 8.84806 0.569452 8.62006C0.569452 8.39206 0.647453 8.20006 0.803453 8.04406C0.959453 7.88806 1.15145 7.81006 1.37945 7.81006Z" fill="#282828"/>
<path d="M8.61969 7.81006C8.84769 7.81006 9.03969 7.88806 9.19569 8.04406C9.35169 8.20006 9.42969 8.39206 9.42969 8.62006C9.42969 8.84806 9.35169 9.04006 9.19569 9.19606C9.03969 9.35206 8.84769 9.43005 8.61969 9.43005C8.39169 9.43005 8.19969 9.35206 8.04369 9.19606C7.88769 9.04006 7.80969 8.84806 7.80969 8.62006C7.80969 8.39206 7.88769 8.20006 8.04369 8.04406C8.19969 7.88806 8.39169 7.81006 8.61969 7.81006Z" fill="#282828"/>
</svg>
