<svg width="100" height="32" viewBox="0 0 100 32" fill="none" xmlns="http://www.w3.org/2000/svg">
<path d="M8 0.727273V0L0 -3.49691e-07L0 8L0.727273 8L0.727273 2.90909C0.727273 1.7041 1.7041 0.727273 2.90909 0.727273L8 0.727273Z" fill="#B4B4B4"/>
<path d="M0.727273 24H0L-3.49692e-07 32H8L8 31.2727H2.90909C1.7041 31.2727 0.727273 30.2959 0.727273 29.0909L0.727273 24Z" fill="#B4B4B4"/>
<path d="M99.2727 8L100 8L100 4.76837e-07L92 -2.22544e-07L92 0.727273L97.0909 0.727273C98.2959 0.727273 99.2727 1.7041 99.2727 2.90909L99.2727 8Z" fill="#B4B4B4"/>
<path d="M92 31.2727L92 32L100 32L100 24L99.2727 24L99.2727 29.0909C99.2727 30.2959 98.2959 31.2727 97.0909 31.2727L92 31.2727Z" fill="#B4B4B4"/>
</svg>
