<svg width="10" height="10" viewBox="0 0 10 10" fill="none" xmlns="http://www.w3.org/2000/svg">
<path d="M1.37945 0.570312C1.60745 0.570312 1.79945 0.648314 1.95545 0.804314C2.11145 0.960313 2.18945 1.15231 2.18945 1.38031C2.18945 1.60831 2.11145 1.80031 1.95545 1.95631C1.79945 2.11231 1.60745 2.19031 1.37945 2.19031C1.15145 2.19031 0.959453 2.11231 0.803453 1.95631C0.647453 1.80031 0.569452 1.60831 0.569452 1.38031C0.569452 1.15231 0.647453 0.960313 0.803453 0.804314C0.959453 0.648313 1.15145 0.570312 1.37945 0.570312Z" fill="#282828"/>
<path d="M5.00055 0.570312C5.22855 0.570312 5.42055 0.648314 5.57655 0.804314C5.73255 0.960313 5.81055 1.15231 5.81055 1.38031C5.81055 1.60831 5.73255 1.80031 5.57655 1.95631C5.42055 2.11231 5.22855 2.19031 5.00055 2.19031C4.77255 2.19031 4.58055 2.11231 4.42455 1.95631C4.26855 1.80031 4.19055 1.60831 4.19055 1.38031C4.19055 1.15231 4.26855 0.960313 4.42455 0.804314C4.58055 0.648313 4.77255 0.570312 5.00055 0.570312Z" fill="#282828"/>
<path d="M8.61969 0.570312C8.84769 0.570312 9.03969 0.648314 9.19569 0.804314C9.35169 0.960313 9.42969 1.15231 9.42969 1.38031C9.42969 1.60831 9.35169 1.80031 9.19569 1.95631C9.03969 2.11231 8.84769 2.19031 8.61969 2.19031C8.39169 2.19031 8.19969 2.11231 8.04369 1.95631C7.88769 1.80031 7.80969 1.60831 7.80969 1.38031C7.80969 1.15231 7.88769 0.960313 8.04369 0.804314C8.19969 0.648313 8.39169 0.570312 8.61969 0.570312Z" fill="#282828"/>
<path d="M1.37945 4.19043C1.60745 4.19043 1.79945 4.26843 1.95545 4.42443C2.11145 4.58043 2.18945 4.77243 2.18945 5.00043C2.18945 5.22843 2.11145 5.42043 1.95545 5.57643C1.79945 5.73243 1.60745 5.81042 1.37945 5.81042C1.15145 5.81042 0.959453 5.73243 0.803453 5.57643C0.647453 5.42043 0.569452 5.22843 0.569452 5.00043C0.569452 4.77243 0.647453 4.58043 0.803453 4.42443C0.959453 4.26843 1.15145 4.19043 1.37945 4.19043Z" fill="#282828"/>
<path d="M5.00055 4.19043C5.22855 4.19043 5.42055 4.26843 5.57655 4.42443C5.73255 4.58043 5.81055 4.77243 5.81055 5.00043C5.81055 5.22843 5.73255 5.42043 5.57655 5.57643C5.42055 5.73243 5.22855 5.81042 5.00055 5.81042C4.77255 5.81042 4.58055 5.73243 4.42455 5.57643C4.26855 5.42043 4.19055 5.22843 4.19055 5.00043C4.19055 4.77243 4.26855 4.58043 4.42455 4.42443C4.58055 4.26843 4.77255 4.19043 5.00055 4.19043Z" fill="#282828"/>
<path d="M8.61969 4.19043C8.84769 4.19043 9.03969 4.26843 9.19569 4.42443C9.35169 4.58043 9.42969 4.77243 9.42969 5.00043C9.42969 5.22843 9.35169 5.42043 9.19569 5.57643C9.03969 5.73243 8.84769 5.81042 8.61969 5.81042C8.39169 5.81042 8.19969 5.73243 8.04369 5.57643C7.88769 5.42043 7.80969 5.22843 7.80969 5.00043C7.80969 4.77243 7.88769 4.58043 8.04369 4.42443C8.19969 4.26843 8.39169 4.19043 8.61969 4.19043Z" fill="#282828"/>
<path d="M1.37945 7.80957C1.60745 7.80957 1.79945 7.88757 1.95545 8.04357C2.11145 8.19957 2.18945 8.39157 2.18945 8.61957C2.18945 8.84757 2.11145 9.03957 1.95545 9.19557C1.79945 9.35157 1.60745 9.42957 1.37945 9.42957C1.15145 9.42957 0.959453 9.35157 0.803453 9.19557C0.647453 9.03957 0.569452 8.84757 0.569452 8.61957C0.569452 8.39157 0.647453 8.19957 0.803453 8.04357C0.959453 7.88757 1.15145 7.80957 1.37945 7.80957Z" fill="#282828"/>
<path d="M5.00055 7.80957C5.22855 7.80957 5.42055 7.88757 5.57655 8.04357C5.73255 8.19957 5.81055 8.39157 5.81055 8.61957C5.81055 8.84757 5.73255 9.03957 5.57655 9.19557C5.42055 9.35157 5.22855 9.42957 5.00055 9.42957C4.77255 9.42957 4.58055 9.35157 4.42455 9.19557C4.26855 9.03957 4.19055 8.84757 4.19055 8.61957C4.19055 8.39157 4.26855 8.19957 4.42455 8.04357C4.58055 7.88757 4.77255 7.80957 5.00055 7.80957Z" fill="#282828"/>
<path d="M8.61969 7.80957C8.84769 7.80957 9.03969 7.88757 9.19569 8.04357C9.35169 8.19957 9.42969 8.39157 9.42969 8.61957C9.42969 8.84757 9.35169 9.03957 9.19569 9.19557C9.03969 9.35157 8.84769 9.42957 8.61969 9.42957C8.39169 9.42957 8.19969 9.35157 8.04369 9.19557C7.88769 9.03957 7.80969 8.84757 7.80969 8.61957C7.80969 8.39157 7.88769 8.19957 8.04369 8.04357C8.19969 7.88757 8.39169 7.80957 8.61969 7.80957Z" fill="#282828"/>
</svg>
