<svg width="337" height="30" viewBox="0 0 337 30" fill="none" xmlns="http://www.w3.org/2000/svg">
<rect width="91" height="30" rx="5" fill="white" fill-opacity="0.7"/>
<path d="M16.804 19V10.42H17.884V18.004H22.384V19H16.804ZM23.3045 19V12.796H24.2765V19H23.3045ZM23.3045 11.62V10.42H24.2765V11.62H23.3045ZM27.1374 19L24.9654 12.796H26.0094L27.2934 16.732L27.7014 18.04H27.7254C27.8774 17.528 28.0134 17.092 28.1334 16.732L29.4414 12.796H30.4494L28.2174 19H27.1374ZM31.1327 19V12.796H32.1047V19H31.1327ZM31.1327 11.62V10.42H32.1047V11.62H31.1327ZM34.4015 12.796V13.612H34.4255C34.9055 12.972 35.5615 12.652 36.3935 12.652C37.0495 12.652 37.5615 12.824 37.9295 13.168C38.2975 13.512 38.4815 14.004 38.4815 14.644V19H37.5095V14.728C37.5095 14.328 37.3855 14.02 37.1375 13.804C36.8895 13.58 36.5455 13.468 36.1055 13.468C35.6095 13.468 35.2015 13.628 34.8815 13.948C34.5615 14.268 34.4015 14.68 34.4015 15.184V19H33.4295V12.796H34.4015ZM42.2414 21.064C41.4494 21.064 40.8254 20.912 40.3694 20.608C39.9214 20.312 39.6694 19.892 39.6134 19.348H40.5134C40.6014 19.98 41.1694 20.296 42.2174 20.296C43.4014 20.296 43.9934 19.764 43.9934 18.7V17.824H43.9694C43.7214 18.144 43.4574 18.384 43.1774 18.544C42.8974 18.704 42.5494 18.784 42.1334 18.784C41.3334 18.784 40.6814 18.496 40.1774 17.92C39.6734 17.344 39.4214 16.608 39.4214 15.712C39.4214 14.776 39.6734 14.032 40.1774 13.48C40.6894 12.928 41.3214 12.652 42.0734 12.652C42.8894 12.652 43.5214 12.964 43.9694 13.588H43.9934V12.796H44.9654V18.664C44.9654 19.456 44.7214 20.052 44.2334 20.452C43.7534 20.86 43.0894 21.064 42.2414 21.064ZM42.1814 17.968C43.4374 17.968 44.0654 17.2 44.0654 15.664C44.0654 14.2 43.4334 13.468 42.1694 13.468C41.6014 13.468 41.1654 13.672 40.8614 14.08C40.5654 14.488 40.4174 15.036 40.4174 15.724C40.4174 16.412 40.5694 16.96 40.8734 17.368C41.1774 17.768 41.6134 17.968 42.1814 17.968ZM49.1672 12.796V13.828H49.1912C49.3912 13.5 49.6512 13.236 49.9712 13.036C50.2912 12.828 50.6472 12.724 51.0392 12.724C51.1832 12.724 51.3152 12.748 51.4352 12.796V13.732H51.3992C51.2792 13.692 51.1352 13.672 50.9672 13.672C50.4712 13.672 50.0472 13.848 49.6952 14.2C49.3432 14.544 49.1672 14.996 49.1672 15.556V19H48.1952V12.796H49.1672ZM56.8981 18.232C56.3541 18.856 55.6301 19.168 54.7261 19.168C53.8221 19.168 53.0941 18.856 52.5421 18.232C51.9981 17.608 51.7261 16.832 51.7261 15.904C51.7261 14.976 51.9981 14.2 52.5421 13.576C53.0941 12.952 53.8221 12.64 54.7261 12.64C55.6301 12.64 56.3541 12.952 56.8981 13.576C57.4421 14.2 57.7141 14.976 57.7141 15.904C57.7141 16.832 57.4421 17.608 56.8981 18.232ZM53.2381 17.668C53.5901 18.124 54.0861 18.352 54.7261 18.352C55.3661 18.352 55.8581 18.124 56.2021 17.668C56.5461 17.204 56.7181 16.616 56.7181 15.904C56.7181 15.184 56.5421 14.596 56.1901 14.14C55.8461 13.676 55.3581 13.444 54.7261 13.444C54.0861 13.444 53.5901 13.676 53.2381 14.14C52.8941 14.604 52.7221 15.192 52.7221 15.904C52.7221 16.616 52.8941 17.204 53.2381 17.668ZM63.5074 18.232C62.9634 18.856 62.2394 19.168 61.3354 19.168C60.4314 19.168 59.7034 18.856 59.1514 18.232C58.6074 17.608 58.3354 16.832 58.3354 15.904C58.3354 14.976 58.6074 14.2 59.1514 13.576C59.7034 12.952 60.4314 12.64 61.3354 12.64C62.2394 12.64 62.9634 12.952 63.5074 13.576C64.0514 14.2 64.3234 14.976 64.3234 15.904C64.3234 16.832 64.0514 17.608 63.5074 18.232ZM59.8474 17.668C60.1994 18.124 60.6954 18.352 61.3354 18.352C61.9754 18.352 62.4674 18.124 62.8114 17.668C63.1554 17.204 63.3274 16.616 63.3274 15.904C63.3274 15.184 63.1514 14.596 62.7994 14.14C62.4554 13.676 61.9674 13.444 61.3354 13.444C60.6954 13.444 60.1994 13.676 59.8474 14.14C59.5034 14.604 59.3314 15.192 59.3314 15.904C59.3314 16.616 59.5034 17.204 59.8474 17.668ZM65.2928 19V12.796H66.2648V13.684H66.2888C66.4888 13.372 66.7488 13.124 67.0688 12.94C67.3888 12.748 67.7368 12.652 68.1128 12.652C68.9208 12.652 69.4608 13.02 69.7328 13.756H69.7568C69.9488 13.412 70.2168 13.144 70.5608 12.952C70.9048 12.752 71.2688 12.652 71.6528 12.652C72.2208 12.652 72.6768 12.828 73.0208 13.18C73.3648 13.524 73.5368 14.012 73.5368 14.644V19H72.5648V14.692C72.5648 14.316 72.4528 14.02 72.2288 13.804C72.0128 13.58 71.7448 13.468 71.4248 13.468C71.0168 13.468 70.6608 13.628 70.3568 13.948C70.0528 14.268 69.9008 14.664 69.9008 15.136V19H68.9288V14.692C68.9288 14.316 68.8288 14.02 68.6288 13.804C68.4368 13.58 68.1808 13.468 67.8608 13.468C67.4608 13.468 67.0928 13.632 66.7568 13.96C66.4288 14.28 66.2648 14.672 66.2648 15.136V19H65.2928Z" fill="#282828"/>
<path d="M111.804 19V10.42H115.44C116.344 10.42 117.032 10.668 117.504 11.164C117.872 11.548 118.056 12.036 118.056 12.628C118.056 13.54 117.596 14.14 116.676 14.428V14.464C117.188 14.584 117.604 14.824 117.924 15.184C118.244 15.536 118.404 15.988 118.404 16.54C118.404 17.196 118.196 17.744 117.78 18.184C117.276 18.728 116.56 19 115.632 19H111.804ZM112.884 18.028H115.584C116.176 18.028 116.624 17.884 116.928 17.596C117.184 17.324 117.312 16.992 117.312 16.6C117.312 16.08 117.148 15.684 116.82 15.412C116.492 15.14 116.056 15.004 115.512 15.004H112.884V18.028ZM112.884 14.092H115.308C115.828 14.092 116.236 13.968 116.532 13.72C116.828 13.472 116.976 13.128 116.976 12.688C116.976 12.272 116.84 11.948 116.568 11.716C116.304 11.476 115.932 11.356 115.452 11.356H112.884V14.092ZM122.035 19.168C121.115 19.168 120.383 18.86 119.839 18.244C119.303 17.62 119.035 16.84 119.035 15.904C119.035 14.984 119.307 14.212 119.851 13.588C120.403 12.956 121.111 12.64 121.975 12.64C122.887 12.64 123.591 12.96 124.087 13.6C124.583 14.232 124.831 15.076 124.831 16.132H120.031C120.071 16.788 120.263 17.324 120.607 17.74C120.959 18.148 121.435 18.352 122.035 18.352C122.963 18.352 123.535 17.928 123.751 17.08H124.699C124.555 17.744 124.251 18.26 123.787 18.628C123.323 18.988 122.739 19.168 122.035 19.168ZM123.271 13.936C122.959 13.584 122.527 13.408 121.975 13.408C121.423 13.408 120.983 13.592 120.655 13.96C120.335 14.328 120.135 14.808 120.055 15.4H123.787C123.755 14.776 123.583 14.288 123.271 13.936ZM128.181 19.18C127.333 19.18 126.661 18.888 126.165 18.304C125.677 17.712 125.433 16.916 125.433 15.916C125.433 14.908 125.689 14.112 126.201 13.528C126.713 12.944 127.365 12.652 128.157 12.652C128.997 12.652 129.645 12.992 130.101 13.672H130.125V10.42H131.097V19H130.125V18.244H130.101C129.613 18.868 128.973 19.18 128.181 19.18ZM128.217 18.364C128.881 18.364 129.373 18.144 129.693 17.704C130.021 17.264 130.185 16.672 130.185 15.928C130.185 15.192 130.009 14.6 129.657 14.152C129.313 13.704 128.829 13.48 128.205 13.48C127.637 13.48 127.197 13.708 126.885 14.164C126.581 14.612 126.429 15.2 126.429 15.928C126.429 16.656 126.581 17.244 126.885 17.692C127.197 18.14 127.641 18.364 128.217 18.364ZM135.296 12.796V13.828H135.32C135.52 13.5 135.78 13.236 136.1 13.036C136.42 12.828 136.776 12.724 137.168 12.724C137.312 12.724 137.444 12.748 137.564 12.796V13.732H137.528C137.408 13.692 137.264 13.672 137.096 13.672C136.6 13.672 136.176 13.848 135.824 14.2C135.472 14.544 135.296 14.996 135.296 15.556V19H134.324V12.796H135.296ZM143.027 18.232C142.483 18.856 141.759 19.168 140.855 19.168C139.951 19.168 139.223 18.856 138.671 18.232C138.127 17.608 137.855 16.832 137.855 15.904C137.855 14.976 138.127 14.2 138.671 13.576C139.223 12.952 139.951 12.64 140.855 12.64C141.759 12.64 142.483 12.952 143.027 13.576C143.571 14.2 143.843 14.976 143.843 15.904C143.843 16.832 143.571 17.608 143.027 18.232ZM139.367 17.668C139.719 18.124 140.215 18.352 140.855 18.352C141.495 18.352 141.987 18.124 142.331 17.668C142.675 17.204 142.847 16.616 142.847 15.904C142.847 15.184 142.671 14.596 142.319 14.14C141.975 13.676 141.487 13.444 140.855 13.444C140.215 13.444 139.719 13.676 139.367 14.14C139.023 14.604 138.851 15.192 138.851 15.904C138.851 16.616 139.023 17.204 139.367 17.668ZM149.636 18.232C149.092 18.856 148.368 19.168 147.464 19.168C146.56 19.168 145.832 18.856 145.28 18.232C144.736 17.608 144.464 16.832 144.464 15.904C144.464 14.976 144.736 14.2 145.28 13.576C145.832 12.952 146.56 12.64 147.464 12.64C148.368 12.64 149.092 12.952 149.636 13.576C150.18 14.2 150.452 14.976 150.452 15.904C150.452 16.832 150.18 17.608 149.636 18.232ZM145.976 17.668C146.328 18.124 146.824 18.352 147.464 18.352C148.104 18.352 148.596 18.124 148.94 17.668C149.284 17.204 149.456 16.616 149.456 15.904C149.456 15.184 149.28 14.596 148.928 14.14C148.584 13.676 148.096 13.444 147.464 13.444C146.824 13.444 146.328 13.676 145.976 14.14C145.632 14.604 145.46 15.192 145.46 15.904C145.46 16.616 145.632 17.204 145.976 17.668ZM151.422 19V12.796H152.394V13.684H152.418C152.618 13.372 152.878 13.124 153.198 12.94C153.518 12.748 153.866 12.652 154.242 12.652C155.05 12.652 155.59 13.02 155.862 13.756H155.886C156.078 13.412 156.346 13.144 156.69 12.952C157.034 12.752 157.398 12.652 157.782 12.652C158.35 12.652 158.806 12.828 159.15 13.18C159.494 13.524 159.666 14.012 159.666 14.644V19H158.694V14.692C158.694 14.316 158.582 14.02 158.358 13.804C158.142 13.58 157.874 13.468 157.554 13.468C157.146 13.468 156.79 13.628 156.486 13.948C156.182 14.268 156.03 14.664 156.03 15.136V19H155.058V14.692C155.058 14.316 154.958 14.02 154.758 13.804C154.566 13.58 154.31 13.468 153.99 13.468C153.59 13.468 153.222 13.632 152.886 13.96C152.558 14.28 152.394 14.672 152.394 15.136V19H151.422Z" fill="white"/>
<path d="M197.804 19V10.42H198.884V14.068H203.468V10.42H204.548V19H203.468V14.944H198.884V19H197.804ZM210.887 19.06C210.271 19.06 209.915 18.752 209.819 18.136H209.807C209.295 18.792 208.607 19.12 207.743 19.12C207.127 19.12 206.623 18.972 206.231 18.676C205.839 18.38 205.643 17.952 205.643 17.392C205.643 17.104 205.687 16.856 205.775 16.648C205.871 16.432 205.991 16.26 206.135 16.132C206.279 15.996 206.475 15.88 206.723 15.784C206.979 15.68 207.223 15.604 207.455 15.556C207.687 15.5 207.983 15.444 208.343 15.388C208.575 15.356 208.739 15.332 208.835 15.316C208.939 15.292 209.071 15.26 209.231 15.22C209.391 15.172 209.503 15.12 209.567 15.064C209.631 15.008 209.691 14.932 209.747 14.836C209.803 14.74 209.831 14.628 209.831 14.5C209.831 14.148 209.707 13.88 209.459 13.696C209.219 13.504 208.879 13.408 208.439 13.408C207.439 13.408 206.923 13.864 206.891 14.776H205.955C205.971 14.144 206.187 13.636 206.603 13.252C207.027 12.868 207.635 12.676 208.427 12.676C209.955 12.676 210.719 13.332 210.719 14.644V17.596C210.719 17.868 210.763 18.06 210.851 18.172C210.947 18.284 211.123 18.312 211.379 18.256H211.415V18.964C211.255 19.028 211.079 19.06 210.887 19.06ZM207.959 18.376C208.559 18.376 209.023 18.204 209.351 17.86C209.679 17.508 209.843 17.124 209.843 16.708V15.652C209.547 15.836 209.075 15.988 208.427 16.108C208.187 16.156 207.999 16.196 207.863 16.228C207.727 16.252 207.571 16.3 207.395 16.372C207.219 16.436 207.087 16.508 206.999 16.588C206.911 16.668 206.835 16.776 206.771 16.912C206.707 17.04 206.675 17.192 206.675 17.368C206.675 18.04 207.103 18.376 207.959 18.376ZM212.169 19V10.42H213.141V19H212.169ZM214.536 19V10.42H215.508V19H214.536Z" fill="white"/>
<path d="M253.804 19V10.42H254.884V14.68L259.108 10.42H260.464L256.996 13.852L260.752 19H259.492L256.264 14.584L254.884 15.964V19H253.804ZM261.383 19V12.796H262.355V19H261.383ZM261.383 11.62V10.42H262.355V11.62H261.383ZM263.284 13.588V12.796H264.184V10.84H265.156V12.796H266.356V13.588H265.156V17.62C265.156 18.004 265.364 18.196 265.78 18.196C265.956 18.196 266.128 18.168 266.296 18.112H266.332V18.952C266.068 19.008 265.808 19.036 265.552 19.036C264.64 19.036 264.184 18.636 264.184 17.836V13.588H263.284ZM269.953 19.168C269.049 19.168 268.321 18.856 267.769 18.232C267.225 17.608 266.953 16.832 266.953 15.904C266.953 14.976 267.225 14.2 267.769 13.576C268.321 12.952 269.049 12.64 269.953 12.64C270.681 12.64 271.277 12.836 271.741 13.228C272.205 13.612 272.493 14.136 272.605 14.8H271.621C271.549 14.376 271.369 14.044 271.081 13.804C270.793 13.564 270.417 13.444 269.953 13.444C269.313 13.444 268.817 13.676 268.465 14.14C268.121 14.604 267.949 15.192 267.949 15.904C267.949 16.616 268.121 17.204 268.465 17.668C268.817 18.124 269.313 18.352 269.953 18.352C270.449 18.352 270.845 18.22 271.141 17.956C271.437 17.684 271.605 17.304 271.645 16.816H272.605C272.541 17.56 272.277 18.14 271.813 18.556C271.349 18.964 270.729 19.168 269.953 19.168ZM274.495 10.42V13.612H274.519C274.999 12.972 275.655 12.652 276.487 12.652C277.143 12.652 277.655 12.824 278.023 13.168C278.391 13.512 278.575 14.004 278.575 14.644V19H277.603V14.728C277.603 14.328 277.479 14.02 277.231 13.804C276.983 13.58 276.639 13.468 276.199 13.468C275.703 13.468 275.295 13.628 274.975 13.948C274.655 14.268 274.495 14.68 274.495 15.184V19H273.523V10.42H274.495ZM282.515 19.168C281.595 19.168 280.863 18.86 280.319 18.244C279.783 17.62 279.515 16.84 279.515 15.904C279.515 14.984 279.787 14.212 280.331 13.588C280.883 12.956 281.591 12.64 282.455 12.64C283.367 12.64 284.071 12.96 284.567 13.6C285.063 14.232 285.311 15.076 285.311 16.132H280.511C280.551 16.788 280.743 17.324 281.087 17.74C281.439 18.148 281.915 18.352 282.515 18.352C283.443 18.352 284.015 17.928 284.231 17.08H285.179C285.035 17.744 284.731 18.26 284.267 18.628C283.803 18.988 283.219 19.168 282.515 19.168ZM283.751 13.936C283.439 13.584 283.007 13.408 282.455 13.408C281.903 13.408 281.463 13.592 281.135 13.96C280.815 14.328 280.615 14.808 280.535 15.4H284.267C284.235 14.776 284.063 14.288 283.751 13.936ZM287.234 12.796V13.612H287.258C287.738 12.972 288.394 12.652 289.226 12.652C289.882 12.652 290.394 12.824 290.762 13.168C291.13 13.512 291.314 14.004 291.314 14.644V19H290.342V14.728C290.342 14.328 290.218 14.02 289.97 13.804C289.722 13.58 289.378 13.468 288.938 13.468C288.442 13.468 288.034 13.628 287.714 13.948C287.394 14.268 287.234 14.68 287.234 15.184V19H286.262V12.796H287.234Z" fill="white"/>
</svg>
