<svg width="263" height="252" viewBox="0 0 263 252" fill="none" xmlns="http://www.w3.org/2000/svg">
<g clip-path="url(#clip0_963_288)">
<circle cx="279.5" cy="-27.5" r="279.5" fill="#F8F7F1"/>
<path d="M4.19144 -19.5C4.19146 128.683 124.317 248.809 272.5 248.809C420.683 248.809 540.809 128.683 540.809 -19.5C540.809 -167.683 420.683 -287.809 272.5 -287.809C124.317 -287.809 4.19143 -167.683 4.19144 -19.5ZM3.00004 -19.5C3.00002 -168.341 123.659 -289 272.5 -289C421.341 -289 542 -168.341 542 -19.5C542 129.341 421.341 250 272.5 250C123.659 250 3.00005 129.341 3.00004 -19.5Z" fill="#898989"/>
<path d="M5.38779 -18.7671C5.38781 126.33 123.012 243.955 268.11 243.955C413.207 243.955 530.832 126.33 530.832 -18.7671C530.832 -163.865 413.207 -281.489 268.11 -281.489C123.012 -281.489 5.38778 -163.865 5.38779 -18.7671ZM4.19633 -18.7671C4.19637 -164.523 122.354 -282.681 268.11 -282.681C413.865 -282.681 532.024 -164.523 532.024 -18.7672C532.024 126.988 413.865 245.147 268.11 245.147C122.354 245.147 4.19634 126.988 4.19633 -18.7671Z" fill="#898989"/>
<path d="M6.57474 -18.0344C6.57476 123.982 121.702 239.11 263.719 239.11C405.736 239.11 520.863 123.982 520.863 -18.0345C520.863 -160.051 405.736 -275.179 263.719 -275.179C121.702 -275.179 6.57479 -160.051 6.57474 -18.0344ZM5.38334 -18.0344C5.38339 -160.709 121.044 -276.37 263.719 -276.37C406.394 -276.37 522.055 -160.709 522.055 -18.0345C522.055 124.64 406.394 240.301 263.719 240.301C121.044 240.301 5.38335 124.64 5.38334 -18.0344Z" fill="#898989"/>
<path d="M7.78599 -17.3013C7.78606 121.63 120.413 234.257 259.344 234.257C398.276 234.257 510.902 121.63 510.902 -17.3014C510.902 -156.233 398.276 -268.859 259.344 -268.86C120.412 -268.86 7.78598 -156.233 7.78599 -17.3013ZM6.59458 -17.3013C6.59457 -156.891 119.754 -270.051 259.344 -270.051C398.934 -270.051 512.093 -156.891 512.093 -17.3014C512.093 122.288 398.934 235.448 259.344 235.448C119.755 235.448 6.59465 122.288 6.59458 -17.3013Z" fill="#898989"/>
<path d="M8.98203 -16.5684C8.98211 119.278 119.108 229.403 254.954 229.403C390.8 229.403 500.926 119.278 500.926 -16.5685C500.926 -152.415 390.8 -262.54 254.954 -262.54C119.107 -262.54 8.98202 -152.415 8.98203 -16.5684ZM7.79063 -16.5684C7.79061 -153.073 118.449 -263.732 254.954 -263.732C391.458 -263.732 502.117 -153.073 502.117 -16.5685C502.117 119.936 391.458 230.595 254.954 230.595C118.45 230.595 7.7907 119.936 7.79063 -16.5684Z" fill="#898989"/>
<path d="M10.1693 -15.8357C10.1694 116.93 117.797 224.558 250.563 224.558C383.329 224.558 490.957 116.93 490.957 -15.8357C490.957 -148.601 383.329 -256.229 250.563 -256.229C117.797 -256.229 10.1693 -148.601 10.1693 -15.8357ZM8.97788 -15.8357C8.97787 -149.259 117.139 -257.421 250.563 -257.421C383.987 -257.421 492.148 -149.259 492.148 -15.8357C492.148 117.588 383.987 225.749 250.563 225.749C117.139 225.749 8.97789 117.588 8.97788 -15.8357Z" fill="#898989"/>
<path d="M11.3675 -15.1028C11.3675 114.578 116.494 219.705 246.175 219.705C375.855 219.705 480.982 114.578 480.982 -15.1028C480.982 -144.783 375.855 -249.91 246.175 -249.91C116.494 -249.91 11.3675 -144.783 11.3675 -15.1028ZM10.1761 -15.1028C10.1761 -145.441 115.836 -251.102 246.175 -251.102C376.513 -251.102 482.174 -145.441 482.174 -15.1028C482.174 115.236 376.513 220.896 246.175 220.896C115.836 220.896 10.1761 115.236 10.1761 -15.1028Z" fill="#898989"/>
<path d="M12.5547 -14.3701C12.5547 112.23 115.184 214.859 241.784 214.859C368.384 214.859 471.013 112.23 471.013 -14.3702C471.013 -140.97 368.384 -243.6 241.784 -243.6C115.184 -243.6 12.5547 -140.97 12.5547 -14.3701ZM11.3633 -14.3701C11.3632 -141.628 114.526 -244.791 241.784 -244.791C369.042 -244.791 472.205 -141.628 472.205 -14.3702C472.205 112.888 369.042 216.051 241.784 216.051C114.526 216.051 11.3633 112.888 11.3633 -14.3701Z" fill="#898989"/>
<path d="M13.7508 -13.6372C13.7508 109.878 113.879 210.006 237.394 210.006C360.909 210.006 461.037 109.877 461.037 -13.6373C461.037 -137.152 360.909 -237.281 237.394 -237.281C113.879 -237.28 13.7508 -137.152 13.7508 -13.6372ZM12.5594 -13.6372C12.5594 -137.81 113.221 -238.472 237.394 -238.472C361.567 -238.472 462.229 -137.81 462.229 -13.6373C462.229 110.535 361.567 211.197 237.394 211.197C113.221 211.197 12.5594 110.536 12.5594 -13.6372Z" fill="#898989"/>
<path d="M14.9545 -12.9043C14.9545 107.525 112.582 205.153 233.011 205.153C353.441 205.153 451.068 107.525 451.068 -12.9044C451.068 -133.334 353.441 -230.961 233.011 -230.961C112.582 -230.961 14.9546 -133.334 14.9545 -12.9043ZM13.7631 -12.9043C13.7631 -133.992 111.924 -232.153 233.011 -232.153C354.099 -232.153 452.26 -133.992 452.26 -12.9044C452.26 108.183 354.099 206.344 233.011 206.344C111.924 206.344 13.7631 108.183 13.7631 -12.9043Z" fill="#898989"/>
<path d="M24.5578 -16.756C24.5578 100.143 119.323 194.909 236.222 194.909C353.121 194.909 447.887 100.143 447.887 -16.756C447.887 -133.655 353.121 -228.421 236.222 -228.421C119.323 -228.421 24.5578 -133.655 24.5578 -16.756ZM23.3664 -16.756C23.3664 -134.313 118.665 -229.612 236.222 -229.612C353.779 -229.612 449.078 -134.313 449.078 -16.756C449.078 100.801 353.779 196.1 236.222 196.1C118.665 196.1 23.3664 100.801 23.3664 -16.756Z" fill="#898989"/>
<path d="M34.1718 -20.6078C34.1718 92.7564 126.072 184.656 239.436 184.656C352.8 184.656 444.7 92.7564 444.7 -20.6078C444.7 -133.972 352.8 -225.872 239.436 -225.872C126.072 -225.872 34.1719 -133.972 34.1718 -20.6078ZM32.9804 -20.6078C32.9804 -134.63 125.414 -227.063 239.436 -227.063C353.458 -227.063 445.891 -134.63 445.891 -20.6078C445.891 93.4144 353.458 185.848 239.436 185.848C125.414 185.848 32.9804 93.4144 32.9804 -20.6078Z" fill="#898989"/>
<path d="M43.7914 -24.4593C43.7914 85.37 132.826 174.404 242.655 174.404C352.484 174.404 441.518 85.37 441.518 -24.4593C441.518 -134.289 352.484 -223.323 242.655 -223.323C132.826 -223.323 43.7914 -134.289 43.7914 -24.4593ZM42.6 -24.4593C42.6 -134.947 132.168 -224.514 242.655 -224.514C353.142 -224.514 442.71 -134.947 442.71 -24.4593C442.71 86.0279 353.142 175.596 242.655 175.596C132.168 175.596 42.6 86.028 42.6 -24.4593Z" fill="#898989"/>
<path d="M53.3998 -28.3108C53.3999 77.9835 139.569 164.152 245.863 164.152C352.157 164.152 438.326 77.9834 438.326 -28.3109C438.326 -134.605 352.157 -220.774 245.863 -220.774C139.569 -220.774 53.3998 -134.605 53.3998 -28.3108ZM52.2084 -28.3108C52.2084 -135.263 138.911 -221.965 245.863 -221.965C352.815 -221.965 439.517 -135.263 439.517 -28.3109C439.517 78.6414 352.815 165.343 245.863 165.343C138.911 165.343 52.2085 78.6415 52.2084 -28.3108Z" fill="#898989"/>
<path d="M63.0105 -32.1627C63.0105 70.6012 146.317 153.908 249.081 153.908C351.845 153.908 435.152 70.6012 435.152 -32.1627C435.152 -134.927 351.845 -218.233 249.081 -218.233C146.317 -218.233 63.0106 -134.927 63.0105 -32.1627ZM61.8191 -32.1627C61.8191 -135.585 145.659 -219.425 249.081 -219.425C352.503 -219.425 436.343 -135.585 436.343 -32.1627C436.343 71.2592 352.503 155.099 249.081 155.099C145.659 155.099 61.8191 71.2592 61.8191 -32.1627Z" fill="#898989"/>
<path d="M72.6301 -36.0142C72.6302 63.2147 153.071 143.656 252.3 143.656C351.529 143.656 431.97 63.2147 431.97 -36.0143C431.97 -135.243 351.529 -215.684 252.3 -215.684C153.071 -215.684 72.6301 -135.243 72.6301 -36.0142ZM71.4387 -36.0142C71.4387 -135.901 152.413 -216.876 252.3 -216.876C352.187 -216.876 433.162 -135.901 433.162 -36.0143C433.162 63.8727 352.187 144.847 252.3 144.847C152.413 144.847 71.4387 63.8727 71.4387 -36.0142Z" fill="#898989"/>
<path d="M82.2369 -39.8659C82.2369 55.8282 159.812 133.404 255.506 133.404C351.2 133.404 428.776 55.8282 428.776 -39.8659C428.776 -135.56 351.2 -213.135 255.506 -213.135C159.812 -213.135 82.2369 -135.56 82.2369 -39.8659ZM81.0455 -39.8659C81.0455 -136.218 159.154 -214.327 255.506 -214.327C351.858 -214.327 429.967 -136.218 429.967 -39.8659C429.967 56.4862 351.858 134.595 255.506 134.595C159.154 134.595 81.0455 56.4862 81.0455 -39.8659Z" fill="#898989"/>
<path d="M91.8509 -43.7095C91.8509 48.4496 166.561 123.159 258.72 123.159C350.879 123.159 425.589 48.4496 425.589 -43.7096C425.589 -135.869 350.879 -210.578 258.72 -210.578C166.561 -210.578 91.8509 -135.869 91.8509 -43.7095ZM90.6595 -43.7095C90.6595 -136.527 165.903 -211.77 258.72 -211.77C351.537 -211.77 426.78 -136.527 426.78 -43.7096C426.78 49.1076 351.537 124.351 258.72 124.351C165.903 124.351 90.6595 49.1076 90.6595 -43.7095Z" fill="#898989"/>
<path d="M101.462 -47.5614C101.462 41.0673 173.309 112.915 261.938 112.915C350.567 112.915 422.415 41.0673 422.415 -47.5614C422.415 -136.19 350.567 -208.038 261.938 -208.038C173.309 -208.038 101.462 -136.19 101.462 -47.5614ZM100.27 -47.5614C100.27 -136.848 172.651 -209.229 261.938 -209.229C351.225 -209.229 423.606 -136.848 423.606 -47.5614C423.606 41.7253 351.225 114.107 261.938 114.107C172.651 114.107 100.27 41.7253 100.27 -47.5614Z" fill="#898989"/>
<path d="M103.849 -52.475C103.849 26.273 167.687 90.111 246.435 90.111C325.183 90.111 389.021 26.273 389.021 -52.475C389.021 -131.223 325.183 -195.061 246.435 -195.061C167.687 -195.061 103.849 -131.223 103.849 -52.475ZM102.658 -52.475C102.658 -131.881 167.029 -196.252 246.435 -196.252C325.841 -196.252 390.213 -131.881 390.213 -52.475C390.213 26.931 325.841 91.3024 246.435 91.3024C167.029 91.3024 102.658 26.9311 102.658 -52.475Z" fill="#898989"/>
<path d="M105.983 -56.7692C105.983 12.1116 161.823 67.9505 230.703 67.9505C299.584 67.9504 355.423 12.1115 355.423 -56.7692C355.423 -125.65 299.584 -181.489 230.703 -181.489C161.823 -181.489 105.983 -125.65 105.983 -56.7692ZM104.792 -56.7692C104.792 -126.308 161.165 -182.681 230.703 -182.681C300.242 -182.681 356.614 -126.308 356.614 -56.7692C356.614 12.7695 300.242 69.1419 230.703 69.1419C161.165 69.1419 104.792 12.7696 104.792 -56.7692Z" fill="#898989"/>
<path d="M108.291 -61.5728C108.291 -2.54125 156.145 45.3134 215.177 45.3134C274.209 45.3134 322.063 -2.54124 322.063 -61.5729C322.063 -120.604 274.209 -168.459 215.177 -168.459C156.145 -168.459 108.291 -120.604 108.291 -61.5728ZM107.099 -61.5728C107.1 -121.262 155.487 -169.65 215.177 -169.65C274.867 -169.65 323.255 -121.262 323.255 -61.5729C323.255 -1.88324 274.867 46.5049 215.177 46.5049C155.487 46.5048 107.099 -1.88325 107.099 -61.5728Z" fill="#898989"/>
<path d="M110.484 -65.9567C110.484 -16.7428 150.38 23.153 199.594 23.153C248.808 23.1529 288.703 -16.7428 288.703 -65.9567C288.703 -115.171 248.808 -155.066 199.594 -155.066C150.38 -155.066 110.484 -115.171 110.484 -65.9567ZM109.293 -65.9567C109.293 -115.829 149.722 -156.258 199.594 -156.258C249.466 -156.258 289.895 -115.829 289.895 -65.9567C289.895 -16.0848 249.466 24.3444 199.594 24.3444C149.722 24.3444 109.293 -16.0848 109.293 -65.9567Z" fill="#898989"/>
<path d="M112.753 -70.422C112.753 -30.9809 144.726 0.992482 184.167 0.992478C223.608 0.992459 255.582 -30.9809 255.582 -70.422C255.582 -109.863 223.608 -141.836 184.167 -141.836C144.726 -141.836 112.753 -109.863 112.753 -70.422ZM111.561 -70.422C111.561 -110.521 144.068 -143.028 184.167 -143.028C224.266 -143.028 256.773 -110.521 256.773 -70.422C256.773 -30.3229 224.266 2.18388 184.167 2.1839C144.068 2.1839 111.562 -30.3228 111.561 -70.422Z" fill="#898989"/>
<path d="M115.123 -75.3129C115.124 -45.5411 139.258 -21.4063 169.03 -21.4063C198.802 -21.4063 222.937 -45.5411 222.937 -75.3129C222.937 -105.085 198.802 -129.22 169.03 -129.22C139.258 -129.22 115.123 -105.085 115.123 -75.3129ZM113.932 -75.3129C113.932 -105.743 138.6 -130.411 169.03 -130.411C199.46 -130.411 224.128 -105.743 224.128 -75.3129C224.128 -44.8831 199.46 -20.2149 169.03 -20.2149C138.6 -20.2149 113.932 -44.8831 113.932 -75.3129Z" fill="#898989"/>
<path d="M117.138 -78.4755C117.138 -56.4323 135.008 -38.5628 157.051 -38.5628C179.094 -38.5628 196.964 -56.4323 196.964 -78.4755C196.964 -100.519 179.094 -118.388 157.051 -118.388C135.008 -118.388 117.138 -100.519 117.138 -78.4755ZM115.947 -78.4755C115.947 -101.177 134.35 -119.58 157.051 -119.58C179.752 -119.58 198.155 -101.177 198.155 -78.4755C198.155 -55.7743 179.752 -37.3714 157.051 -37.3714C134.35 -37.3714 115.947 -55.7743 115.947 -78.4755Z" fill="#898989"/>
<path d="M119.521 -82.8838C119.521 -69.1972 130.616 -58.1021 144.303 -58.1021C157.989 -58.1021 169.084 -69.1972 169.084 -82.8838C169.084 -96.5702 157.989 -107.665 144.303 -107.665C130.616 -107.665 119.521 -96.5702 119.521 -82.8838ZM118.33 -82.8838C118.33 -97.2283 129.958 -108.857 144.303 -108.857C158.647 -108.857 170.276 -97.2283 170.276 -82.8838C170.276 -68.5392 158.647 -56.9107 144.303 -56.9107C129.958 -56.9107 118.33 -68.5392 118.33 -82.8838Z" fill="#898989"/>
<path d="M121.428 -85.3857C121.428 -77.9503 127.455 -71.9226 134.891 -71.9226C142.326 -71.9226 148.354 -77.9503 148.354 -85.3857C148.354 -92.8212 142.326 -98.8488 134.891 -98.8488C127.455 -98.8488 121.428 -92.8212 121.428 -85.3857ZM120.236 -85.3857C120.236 -93.4792 126.797 -100.04 134.891 -100.04C142.984 -100.04 149.545 -93.4792 149.545 -85.3857C149.545 -77.2923 142.984 -70.7312 134.891 -70.7312C126.797 -70.7312 120.236 -77.2923 120.236 -85.3857Z" fill="#898989"/>
</g>
<defs>
<clipPath id="clip0_963_288">
<rect width="263" height="252" fill="white"/>
</clipPath>
</defs>
</svg>
