<svg width="10" height="11" viewBox="0 0 10 11" fill="none" xmlns="http://www.w3.org/2000/svg">
<path d="M5.0025 1.09668C5.2305 1.09668 5.4225 1.17468 5.5785 1.33068C5.7345 1.48668 5.8125 1.67868 5.8125 1.90668C5.8125 2.13468 5.7345 2.32668 5.5785 2.48268C5.4225 2.63868 5.2305 2.71667 5.0025 2.71667C4.7745 2.71667 4.5825 2.63868 4.4265 2.48268C4.2705 2.32668 4.1925 2.13468 4.1925 1.90668C4.1925 1.67868 4.2705 1.48668 4.4265 1.33068C4.5825 1.17468 4.7745 1.09668 5.0025 1.09668Z" fill="#282828"/>
<path d="M1.3775 4.7168C1.6055 4.7168 1.7975 4.7948 1.9535 4.9508C2.1095 5.1068 2.1875 5.29879 2.1875 5.52679C2.1875 5.75479 2.1095 5.9468 1.9535 6.1028C1.7975 6.2588 1.6055 6.33679 1.3775 6.33679C1.1495 6.33679 0.9575 6.2588 0.8015 6.1028C0.645499 5.9468 0.567499 5.75479 0.567499 5.52679C0.567499 5.29879 0.645499 5.1068 0.8015 4.9508C0.9575 4.7948 1.1495 4.7168 1.3775 4.7168Z" fill="#282828"/>
<path d="M5.0025 4.7168C5.2305 4.7168 5.4225 4.7948 5.5785 4.9508C5.7345 5.1068 5.8125 5.29879 5.8125 5.52679C5.8125 5.75479 5.7345 5.9468 5.5785 6.1028C5.4225 6.2588 5.2305 6.33679 5.0025 6.33679C4.7745 6.33679 4.5825 6.2588 4.4265 6.1028C4.2705 5.9468 4.1925 5.75479 4.1925 5.52679C4.1925 5.29879 4.2705 5.1068 4.4265 4.9508C4.5825 4.7948 4.7745 4.7168 5.0025 4.7168Z" fill="#282828"/>
<path d="M8.61969 4.7168C8.84769 4.7168 9.03969 4.7948 9.19569 4.9508C9.35169 5.1068 9.42969 5.29879 9.42969 5.52679C9.42969 5.75479 9.35169 5.9468 9.19569 6.1028C9.03969 6.2588 8.84769 6.33679 8.61969 6.33679C8.39169 6.33679 8.19969 6.2588 8.04369 6.1028C7.88769 5.9468 7.80969 5.75479 7.80969 5.52679C7.80969 5.29879 7.88769 5.1068 8.04369 4.9508C8.19969 4.7948 8.39169 4.7168 8.61969 4.7168Z" fill="#282828"/>
<path d="M5.0025 8.33594C5.2305 8.33594 5.4225 8.41394 5.5785 8.56994C5.7345 8.72594 5.8125 8.91793 5.8125 9.14594C5.8125 9.37393 5.7345 9.56594 5.5785 9.72194C5.4225 9.87794 5.2305 9.95593 5.0025 9.95593C4.7745 9.95593 4.5825 9.87794 4.4265 9.72194C4.2705 9.56594 4.1925 9.37393 4.1925 9.14593C4.1925 8.91793 4.2705 8.72594 4.4265 8.56994C4.5825 8.41394 4.7745 8.33594 5.0025 8.33594Z" fill="#282828"/>
</svg>
