<svg width="11" height="10" viewBox="0 0 11 10" fill="none" xmlns="http://www.w3.org/2000/svg">
<path d="M1.59454 0.570312C1.82254 0.570312 2.01454 0.648314 2.17054 0.804314C2.32654 0.960313 2.40454 1.15231 2.40454 1.38031C2.40454 1.60831 2.32654 1.80031 2.17054 1.95631C2.01454 2.11231 1.82254 2.19031 1.59454 2.19031C1.36654 2.19031 1.17454 2.11231 1.01854 1.95631C0.86254 1.80031 0.78454 1.60831 0.78454 1.38031C0.78454 1.15231 0.86254 0.960313 1.01854 0.804314C1.17454 0.648313 1.36654 0.570312 1.59454 0.570312Z" fill="white"/>
<path d="M8.83478 0.570312C9.06278 0.570312 9.25478 0.648314 9.41078 0.804314C9.56678 0.960313 9.64478 1.15231 9.64478 1.38031C9.64478 1.60831 9.56678 1.80031 9.41078 1.95631C9.25477 2.11231 9.06277 2.19031 8.83478 2.19031C8.60678 2.19031 8.41478 2.11231 8.25877 1.95631C8.10277 1.80031 8.02477 1.60831 8.02477 1.38031C8.02477 1.15231 8.10277 0.960313 8.25877 0.804314C8.41478 0.648313 8.60678 0.570312 8.83478 0.570312Z" fill="white"/>
<path d="M5.21563 4.18945C5.44363 4.18945 5.63563 4.26745 5.79163 4.42345C5.94763 4.57945 6.02563 4.77145 6.02563 4.99945C6.02563 5.22745 5.94763 5.41945 5.79163 5.57545C5.63563 5.73145 5.44363 5.80945 5.21563 5.80945C4.98763 5.80945 4.79563 5.73145 4.63963 5.57545C4.48363 5.41945 4.40563 5.22745 4.40563 4.99945C4.40563 4.77145 4.48363 4.57945 4.63963 4.42345C4.79563 4.26745 4.98763 4.18945 5.21563 4.18945Z" fill="white"/>
<path d="M1.59454 7.81055C1.82254 7.81055 2.01454 7.88855 2.17054 8.04455C2.32654 8.20055 2.40454 8.39254 2.40454 8.62054C2.40454 8.84854 2.32654 9.04055 2.17054 9.19655C2.01454 9.35255 1.82254 9.43054 1.59454 9.43054C1.36654 9.43054 1.17454 9.35255 1.01854 9.19655C0.86254 9.04055 0.78454 8.84854 0.78454 8.62054C0.78454 8.39254 0.86254 8.20055 1.01854 8.04455C1.17454 7.88855 1.36654 7.81055 1.59454 7.81055Z" fill="white"/>
<path d="M8.83478 7.81055C9.06278 7.81055 9.25478 7.88855 9.41078 8.04455C9.56678 8.20055 9.64478 8.39254 9.64478 8.62054C9.64478 8.84854 9.56678 9.04055 9.41078 9.19655C9.25477 9.35255 9.06277 9.43054 8.83478 9.43054C8.60678 9.43054 8.41478 9.35255 8.25877 9.19655C8.10277 9.04055 8.02477 8.84854 8.02477 8.62054C8.02477 8.39254 8.10277 8.20055 8.25877 8.04455C8.41478 7.88855 8.60678 7.81055 8.83478 7.81055Z" fill="white"/>
</svg>
